<svg xmlns="http://www.w3.org/2000/svg" version="1.1" width="1024" height="772">
<rect x="0" y="0" width="1024" height="772" fill="#92867a" />
<g transform="scale(4.000000) translate(0.5 0.5)">
<polygon fill="#ffecb1" fill-opacity="0.501961" points="19,123 249,15 15,-16" />
<polygon fill="#000000" fill-opacity="0.501961" points="13,-14 -16,107 19,208" />
<polygon fill="#000001" fill-opacity="0.501961" points="256,-16 258,204 227,93" />
<polygon fill="#354051" fill-opacity="0.501961" points="236,159 108,50 48,125" />
<polygon fill="#c0cddb" fill-opacity="0.501961" points="240,183 18,117 39,182" />
<polygon fill="#000000" fill-opacity="0.501961" points="-16,191 32,198 2,14" />
<polygon fill="#000009" fill-opacity="0.501961" points="271,208 267,169 133,192" />
<polygon fill="#ffa787" fill-opacity="0.501961" points="249,60 12,74 245,-12" />
<polygon fill="#000001" fill-opacity="0.501961" points="10,208 134,191 -8,173" />
<polygon fill="#000000" fill-opacity="0.501961" points="-16,23 16,127 14,-16" />
<polygon fill="#285666" fill-opacity="0.501961" points="251,120 194,140 217,21" />
<polygon fill="#f9eaba" fill-opacity="0.501961" points="16,-16 18,169 89,-15" />
<polygon fill="#a7b4c9" fill-opacity="0.501961" points="17,118 19,71 130,87" />
<polygon fill="#b3afb6" fill-opacity="0.501961" points="246,184 127,189 247,121" />
<polygon fill="#000000" fill-opacity="0.501961" points="271,27 252,113 246,-16" />
<polygon fill="#000000" fill-opacity="0.501961" points="251,61 271,147 245,208" />
<polygon fill="#ded6de" fill-opacity="0.501961" points="199,105 225,75 156,98" />
<polygon fill="#1f4a52" fill-opacity="0.501961" points="105,150 96,98 37,111" />
<polygon fill="#6e1329" fill-opacity="0.501961" points="120,55 72,76 129,82" />
<polygon fill="#000000" fill-opacity="0.501961" points="155,0 210,-16 259,1" />
<polygon fill="#cd4d4c" fill-opacity="0.501961" points="73,21 181,14 123,34" />
<polygon fill="#ffefa9" fill-opacity="0.501961" points="155,21 82,2 207,1" />
<polygon fill="#000000" fill-opacity="0.501961" points="15,208 16,78 -16,131" />
<polygon fill="#000000" fill-opacity="0.501961" points="78,188 219,189 149,208" />
<polygon fill="#b9c6ca" fill-opacity="0.501961" points="193,187 68,188 149,149" />
<polygon fill="#3e5459" fill-opacity="0.501961" points="114,146 200,160 251,91" />
<polygon fill="#8e605e" fill-opacity="0.501961" points="107,148 14,168 30,190" />
<polygon fill="#d44239" fill-opacity="0.501961" points="238,179 219,147 183,149" />
<polygon fill="#3d575a" fill-opacity="0.501961" points="206,73 135,69 70,131" />
<polygon fill="#ffe59c" fill-opacity="0.501961" points="14,77 17,-16 108,43" />
<polygon fill="#efdfc3" fill-opacity="0.501961" points="86,76 119,90 62,104" />
<polygon fill="#1c3c3f" fill-opacity="0.501961" points="250,167 236,208 193,179" />
<polygon fill="#ffc399" fill-opacity="0.501961" points="197,71 222,5 109,62" />
<polygon fill="#000000" fill-opacity="0.501961" points="13,-16 16,116 -16,22" />
<polygon fill="#92a5b7" fill-opacity="0.501961" points="54,78 16,189 19,77" />
<polygon fill="#bed7dd" fill-opacity="0.501961" points="217,128 247,129 244,169" />
<polygon fill="#f77377" fill-opacity="0.501961" points="224,61 246,4 248,71" />
<polygon fill="#000000" fill-opacity="0.501961" points="166,-16 107,0 210,0" />
<polygon fill="#000000" fill-opacity="0.501961" points="30,208 105,190 -8,187" />
<polygon fill="#1d505a" fill-opacity="0.501961" points="19,208 15,156 40,168" />
<polygon fill="#e32638" fill-opacity="0.501961" points="131,121 147,98 124,103" />
<polygon fill="#000000" fill-opacity="0.501961" points="44,0 131,-1 75,-16" />
<polygon fill="#ffffbe" fill-opacity="0.501961" points="167,76 159,90 176,81" />
<polygon fill="#000000" fill-opacity="0.501961" points="254,117 271,36 246,-16" />
<polygon fill="#b3c5c9" fill-opacity="0.501961" points="119,149 193,184 202,159" />
<polygon fill="#b7c5c9" fill-opacity="0.501961" points="18,157 17,92 72,162" />
<polygon fill="#01333d" fill-opacity="0.501961" points="185,101 164,102 185,115" />
<polygon fill="#000000" fill-opacity="0.501961" points="252,63 271,145 246,208" />
<polygon fill="#416065" fill-opacity="0.501961" points="250,66 249,127 199,99" />
<polygon fill="#96122e" fill-opacity="0.501961" points="173,16 179,31 165,31" />
<polygon fill="#fa9c6b" fill-opacity="0.501961" points="117,144 98,154 108,125" />
<polygon fill="#000000" fill-opacity="0.501961" points="11,36 -16,148 16,208" />
<polygon fill="#f6cc9f" fill-opacity="0.501961" points="126,72 188,60 118,29" />
<polygon fill="#000000" fill-opacity="0.501961" points="193,1 191,-16 245,0" />
<polygon fill="#000000" fill-opacity="0.501961" points="179,192 263,187 244,206" />
<polygon fill="#a18d71" fill-opacity="0.501961" points="158,23 105,39 160,39" />
<polygon fill="#bbbfb8" fill-opacity="0.501961" points="41,183 84,135 33,124" />
<polygon fill="#32575b" fill-opacity="0.501961" points="93,97 122,145 181,157" />
<polygon fill="#ffe19f" fill-opacity="0.501961" points="134,15 61,23 114,1" />
<polygon fill="#ad293b" fill-opacity="0.501961" points="80,34 97,25 93,13" />
<polygon fill="#3d4448" fill-opacity="0.501961" points="129,101 106,125 120,48" />
<polygon fill="#314d55" fill-opacity="0.501961" points="222,80 196,78 206,60" />
<polygon fill="#ce796c" fill-opacity="0.501961" points="192,139 187,154 236,178" />
<polygon fill="#ffc79d" fill-opacity="0.501961" points="225,1 202,34 153,1" />
<polygon fill="#769494" fill-opacity="0.501961" points="177,134 169,107 144,131" />
<polygon fill="#e48478" fill-opacity="0.501961" points="249,65 246,8 212,10" />
<polygon fill="#2a4a51" fill-opacity="0.501961" points="57,128 110,94 34,116" />
<polygon fill="#364635" fill-opacity="0.501961" points="69,9 68,4 84,8" />
<polygon fill="#1c6678" fill-opacity="0.501961" points="85,70 91,77 62,78" />
<polygon fill="#b94d52" fill-opacity="0.501961" points="114,16 151,17 146,33" />
<polygon fill="#aa616d" fill-opacity="0.501961" points="129,172 142,179 168,171" />
<polygon fill="#ffdca1" fill-opacity="0.501961" points="15,76 15,47 94,70" />
<polygon fill="#c9b3c1" fill-opacity="0.501961" points="166,93 224,84 197,79" />
<polygon fill="#546f70" fill-opacity="0.501961" points="75,122 177,73 134,71" />
<polygon fill="#000000" fill-opacity="0.501961" points="13,130 -16,22 13,-16" />
<polygon fill="#d3beac" fill-opacity="0.501961" points="186,107 203,105 188,61" />
<polygon fill="#b6c2c3" fill-opacity="0.501961" points="175,186 82,161 85,188" />
<polygon fill="#b5404e" fill-opacity="0.501961" points="87,158 68,157 43,183" />
<polygon fill="#da8371" fill-opacity="0.501961" points="88,47 58,67 61,47" />
<polygon fill="#2c4a51" fill-opacity="0.501961" points="162,67 158,96 138,72" />
<polygon fill="#b33c43" fill-opacity="0.501961" points="112,46 115,81 93,73" />
<polygon fill="#a4b9c0" fill-opacity="0.501961" points="53,157 50,171 91,152" />
<polygon fill="#bbced1" fill-opacity="0.501961" points="224,135 242,170 217,146" />
<polygon fill="#b84956" fill-opacity="0.501961" points="42,95 59,91 27,90" />
<polygon fill="#000000" fill-opacity="0.501961" points="8,188 139,188 81,208" />
<polygon fill="#48686f" fill-opacity="0.501961" points="215,171 250,189 187,188" />
<polygon fill="#e48352" fill-opacity="0.501961" points="35,183 44,161 55,175" />
<polygon fill="#41585d" fill-opacity="0.501961" points="248,101 216,39 234,132" />
<polygon fill="#000000" fill-opacity="0.501961" points="81,190 147,208 215,189" />
<polygon fill="#e99982" fill-opacity="0.501961" points="202,33 212,57 130,72" />
<polygon fill="#fffdb9" fill-opacity="0.501961" points="144,31 129,35 117,30" />
<polygon fill="#2e4454" fill-opacity="0.501961" points="170,70 193,80 176,86" />
<polygon fill="#3d5659" fill-opacity="0.501961" points="216,144 172,134 221,95" />
<polygon fill="#b37a8e" fill-opacity="0.501961" points="189,81 205,90 169,90" />
<polygon fill="#000000" fill-opacity="0.501961" points="248,111 271,127 247,208" />
<polygon fill="#fffda9" fill-opacity="0.501961" points="226,175 220,173 226,161" />
<polygon fill="#ffe0a2" fill-opacity="0.501961" points="91,18 73,47 -1,-16" />
<polygon fill="#ab424c" fill-opacity="0.501961" points="82,32 82,14 77,29" />
<polygon fill="#ffffbb" fill-opacity="0.501961" points="107,38 111,49 108,60" />
<polygon fill="#8d2136" fill-opacity="0.501961" points="195,156 195,136 210,146" />
</g>
</svg>