<svg xmlns="http://www.w3.org/2000/svg" version="1.1" width="1024" height="1024">
<rect x="0" y="0" width="1024" height="1024" fill="#fafafa" />
<g transform="scale(4.000000) translate(0.5 0.5)">
<polygon fill="#c5c6c6" fill-opacity="0.501961" points="271,203 163,136 129,49" />
<polygon fill="#4b4d4d" fill-opacity="0.501961" points="173,60 183,79 159,55" />
<polygon fill="#999a9a" fill-opacity="0.501961" points="143,110 112,105 75,123" />
<polygon fill="#979898" fill-opacity="0.501961" points="249,172 201,162 213,144" />
<polygon fill="#c0c0c0" fill-opacity="0.501961" points="114,84 49,102 132,53" />
<polygon fill="#b9baba" fill-opacity="0.501961" points="76,124 17,122 38,135" />
<polygon fill="#ffffff" fill-opacity="0.501961" points="140,116 -16,270 271,210" />
<polygon fill="#898a8a" fill-opacity="0.501961" points="159,55 136,52 116,62" />
<polygon fill="#ffffff" fill-opacity="0.501961" points="261,108 83,110 271,33" />
<polygon fill="#919292" fill-opacity="0.501961" points="182,83 169,93 177,72" />
<polygon fill="#ffffff" fill-opacity="0.501961" points="13,74 -9,-16 271,33" />
<polygon fill="#a3a4a4" fill-opacity="0.501961" points="157,107 170,133 139,103" />
<polygon fill="#ffffff" fill-opacity="0.501961" points="181,113 208,154 150,104" />
<polygon fill="#a9abab" fill-opacity="0.501961" points="186,120 242,159 212,151" />
<polygon fill="#ffffff" fill-opacity="0.501961" points="271,271 -16,153 115,113" />
<polygon fill="#ffffff" fill-opacity="0.501961" points="187,6 179,96 235,169" />
<polygon fill="#ffffff" fill-opacity="0.501961" points="42,130 50,101 148,100" />
<polygon fill="#525555" fill-opacity="0.501961" points="119,113 125,110 111,108" />
<polygon fill="#ffffff" fill-opacity="0.501961" points="271,159 257,267 76,261" />
<polygon fill="#a1a3a3" fill-opacity="0.501961" points="46,107 49,123 58,131" />
<polygon fill="#ffffff" fill-opacity="0.501961" points="97,108 61,25 131,110" />
<polygon fill="#bebfbf" fill-opacity="0.501961" points="118,89 146,88 168,72" />
<polygon fill="#ffffff" fill-opacity="0.501961" points="177,112 195,164 210,151" />
<polygon fill="#515353" fill-opacity="0.501961" points="133,113 109,113 118,108" />
<polygon fill="#ffffff" fill-opacity="0.501961" points="93,101 128,111 158,80" />
<polygon fill="#b9b9b9" fill-opacity="0.501961" points="54,95 98,78 64,104" />
<polygon fill="#585a5a" fill-opacity="0.501961" points="111,112 83,120 98,120" />
<polygon fill="#ffffff" fill-opacity="0.501961" points="67,129 177,133 114,112" />
<polygon fill="#101414" fill-opacity="0.501961" points="215,151 203,160 208,153" />
<polygon fill="#c8c9c9" fill-opacity="0.501961" points="212,166 241,159 233,185" />
<polygon fill="#606262" fill-opacity="0.501961" points="19,117 23,111 12,120" />
<polygon fill="#bbbcbc" fill-opacity="0.501961" points="164,127 196,155 172,119" />
<polygon fill="#ffffff" fill-opacity="0.501961" points="-16,130 271,244 3,271" />
<polygon fill="#ffffff" fill-opacity="0.501961" points="271,208 255,-16 137,-1" />
<polygon fill="#ffffff" fill-opacity="0.501961" points="102,84 148,79 142,63" />
<polygon fill="#d2d3d3" fill-opacity="0.501961" points="116,72 140,56 160,58" />
<polygon fill="#bfc0c0" fill-opacity="0.501961" points="188,120 173,101 151,94" />
<polygon fill="#fefefe" fill-opacity="0.501961" points="167,61 134,56 179,79" />
<polygon fill="#515353" fill-opacity="0.501961" points="82,121 73,123 80,124" />
<polygon fill="#ffffff" fill-opacity="0.501961" points="28,136 106,112 92,90" />
<polygon fill="#787a7a" fill-opacity="0.501961" points="175,60 167,55 178,78" />
<polygon fill="#6d6f6f" fill-opacity="0.501961" points="226,158 221,153 212,159" />
<polygon fill="#ffffff" fill-opacity="0.501961" points="148,115 216,173 -16,212" />
<polygon fill="#7f8181" fill-opacity="0.501961" points="120,62 108,72 111,64" />
<polygon fill="#ffffff" fill-opacity="0.501961" points="156,94 184,113 156,80" />
<polygon fill="#e7e8e8" fill-opacity="0.501961" points="38,133 23,149 -16,100" />
<polygon fill="#ffffff" fill-opacity="0.501961" points="-16,-3 88,73 267,2" />
<polygon fill="#737575" fill-opacity="0.501961" points="134,58 143,63 148,72" />
<polygon fill="#babbbb" fill-opacity="0.501961" points="119,105 111,81 120,93" />
<polygon fill="#8a8c8c" fill-opacity="0.501961" points="194,148 186,145 200,157" />
<polygon fill="#464949" fill-opacity="0.501961" points="155,55 149,52 142,55" />
<polygon fill="#ffffff" fill-opacity="0.501961" points="-16,123 106,73 2,-16" />
<polygon fill="#ffffff" fill-opacity="0.501961" points="23,135 38,126 -7,122" />
<polygon fill="#898b8b" fill-opacity="0.501961" points="152,78 155,93 149,81" />
<polygon fill="#414343" fill-opacity="0.501961" points="173,92 165,96 169,92" />
<polygon fill="#ffffff" fill-opacity="0.501961" points="166,99 197,63 271,137" />
<polygon fill="#ffffff" fill-opacity="0.501961" points="200,156 184,140 181,117" />
<polygon fill="#c8c9c9" fill-opacity="0.501961" points="11,109 42,100 29,109" />
<polygon fill="#ffffff" fill-opacity="0.501961" points="135,58 102,71 144,68" />
<polygon fill="#ffffff" fill-opacity="0.501961" points="213,146 219,153 215,156" />
<polygon fill="#5d5f5f" fill-opacity="0.501961" points="207,132 213,143 205,135" />
<polygon fill="#ffffff" fill-opacity="0.501961" points="235,166 205,131 201,94" />
<polygon fill="#a1a2a2" fill-opacity="0.501961" points="245,170 225,153 236,155" />
<polygon fill="#ffffff" fill-opacity="0.501961" points="63,54 218,52 97,-16" />
<polygon fill="#ffffff" fill-opacity="0.501961" points="186,178 221,157 192,188" />
<polygon fill="#7d7e7e" fill-opacity="0.501961" points="202,126 205,134 194,121" />
<polygon fill="#ffffff" fill-opacity="0.501961" points="158,105 149,82 105,110" />
<polygon fill="#ffffff" fill-opacity="0.501961" points="245,121 228,155 190,112" />
<polygon fill="#ffffff" fill-opacity="0.501961" points="63,99 123,106 56,128" />
<polygon fill="#8c8d8d" fill-opacity="0.501961" points="177,127 183,136 167,123" />
<polygon fill="#ffffff" fill-opacity="0.501961" points="165,119 173,110 183,133" />
<polygon fill="#848686" fill-opacity="0.501961" points="33,123 23,125 16,121" />
<polygon fill="#252828" fill-opacity="0.501961" points="216,147 215,152 220,150" />
<polygon fill="#2e3131" fill-opacity="0.501961" points="157,54 162,57 158,57" />
<polygon fill="#ffffff" fill-opacity="0.501961" points="42,99 20,123 51,122" />
<polygon fill="#ffffff" fill-opacity="0.501961" points="56,131 103,271 111,114" />
<polygon fill="#ffffff" fill-opacity="0.501961" points="253,190 228,164 254,243" />
<polygon fill="#7a7d7d" fill-opacity="0.501961" points="161,125 157,112 164,120" />
<polygon fill="#dfe0e0" fill-opacity="0.501961" points="143,99 175,132 136,109" />
<polygon fill="#585959" fill-opacity="0.501961" points="212,150 210,144 203,140" />
<polygon fill="#ffffff" fill-opacity="0.501961" points="146,55 154,55 151,76" />
<polygon fill="#ffffff" fill-opacity="0.501961" points="211,150 204,135 217,150" />
<polygon fill="#5e6060" fill-opacity="0.501961" points="130,57 124,63 117,63" />
<polygon fill="#ffffff" fill-opacity="0.501961" points="147,112 116,114 191,152" />
<polygon fill="#5c5e5e" fill-opacity="0.501961" points="72,124 68,128 59,128" />
<polygon fill="#ffffff" fill-opacity="0.501961" points="175,64 271,205 254,-16" />
<polygon fill="#ffffff" fill-opacity="0.501961" points="115,66 115,74 130,59" />
<polygon fill="#4b4e4e" fill-opacity="0.501961" points="80,120 82,122 85,121" />
<polygon fill="#b5b5b5" fill-opacity="0.501961" points="221,167 233,183 210,165" />
<polygon fill="#acadad" fill-opacity="0.501961" points="130,66 120,68 118,73" />
<polygon fill="#b2b3b3" fill-opacity="0.501961" points="15,138 7,130 6,121" />
<polygon fill="#ffffff" fill-opacity="0.501961" points="177,76 158,61 168,61" />
<polygon fill="#ffffff" fill-opacity="0.501961" points="119,89 148,78 142,66" />
<polygon fill="#ffffff" fill-opacity="0.501961" points="226,166 210,177 202,195" />
<polygon fill="#969696" fill-opacity="0.501961" points="71,93 86,91 85,87" />
<polygon fill="#c1c2c2" fill-opacity="0.501961" points="104,79 114,63 97,78" />
<polygon fill="#ffffff" fill-opacity="0.501961" points="38,137 97,118 -7,271" />
<polygon fill="#ffffff" fill-opacity="0.501961" points="207,136 202,135 197,128" />
<polygon fill="#9d9e9e" fill-opacity="0.501961" points="184,113 173,108 190,123" />
<polygon fill="#4d5050" fill-opacity="0.501961" points="125,59 137,59 132,57" />
</g>
</svg>