<svg xmlns="http://www.w3.org/2000/svg" version="1.1" width="1024" height="512">
<rect x="0" y="0" width="1024" height="512" fill="#8eabba" />
<g transform="scale(4.000000) translate(0.5 0.5)">
<polygon fill="#001034" fill-opacity="0.501961" points="1,143 0,-16 125,85" />
<polygon fill="#ffffff" fill-opacity="0.501961" points="247,143 271,25 70,44" />
<polygon fill="#ffffff" fill-opacity="0.501961" points="182,143 271,85 115,-16" />
<polygon fill="#000000" fill-opacity="0.501961" points="175,-2 271,28 176,29" />
<polygon fill="#ffcf7a" fill-opacity="0.501961" points="17,113 48,57 68,112" />
<polygon fill="#000a34" fill-opacity="0.501961" points="89,143 130,113 -16,118" />
<polygon fill="#ffffff" fill-opacity="0.501961" points="129,133 128,-16 184,-16" />
<polygon fill="#004499" fill-opacity="0.501961" points="-16,68 -16,-13 125,-16" />
<polygon fill="#ffffff" fill-opacity="0.501961" points="271,-8 254,143 170,123" />
<polygon fill="#0f8bb8" fill-opacity="0.501961" points="128,109 127,30 27,40" />
<polygon fill="#00a3ee" fill-opacity="0.501961" points="175,96 159,143 129,98" />
<polygon fill="#421209" fill-opacity="0.501961" points="41,89 27,35 -16,94" />
<polygon fill="#a3bccf" fill-opacity="0.501961" points="123,122 9,102 113,90" />
<polygon fill="#0097d4" fill-opacity="0.501961" points="117,2 -16,-16 37,16" />
<polygon fill="#102e45" fill-opacity="0.501961" points="248,28 248,-16 177,22" />
<polygon fill="#f6ffff" fill-opacity="0.501961" points="129,25 128,105 271,37" />
<polygon fill="#d3f0e1" fill-opacity="0.501961" points="139,0 69,41 51,18" />
<polygon fill="#fab04c" fill-opacity="0.501961" points="25,67 54,64 54,119" />
<polygon fill="#ffffff" fill-opacity="0.501961" points="173,-16 175,34 106,28" />
<polygon fill="#ffffff" fill-opacity="0.501961" points="271,114 231,142 254,-16" />
<polygon fill="#ffffff" fill-opacity="0.501961" points="170,143 172,84 271,126" />
<polygon fill="#000816" fill-opacity="0.501961" points="249,25 174,4 176,25" />
<polygon fill="#0a2867" fill-opacity="0.501961" points="44,66 59,26 -16,-12" />
<polygon fill="#ffffff" fill-opacity="0.501961" points="6,116 6,92 13,98" />
<polygon fill="#08a3da" fill-opacity="0.501961" points="170,99 138,143 133,96" />
<polygon fill="#494d69" fill-opacity="0.501961" points="29,87 122,73 113,98" />
<polygon fill="#7ba9c8" fill-opacity="0.501961" points="257,18 174,-16 193,10" />
<polygon fill="#0f3c68" fill-opacity="0.501961" points="127,105 105,131 128,130" />
<polygon fill="#141130" fill-opacity="0.501961" points="-16,137 85,124 -16,110" />
<polygon fill="#a8d9cc" fill-opacity="0.501961" points="128,48 75,46 125,79" />
<polygon fill="#005ba2" fill-opacity="0.501961" points="78,79 -3,19 77,46" />
<polygon fill="#000927" fill-opacity="0.501961" points="3,71 12,99 30,81" />
<polygon fill="#ffffff" fill-opacity="0.501961" points="24,112 23,89 19,105" />
<polygon fill="#008dc7" fill-opacity="0.501961" points="17,11 12,-16 113,5" />
<polygon fill="#003b6a" fill-opacity="0.501961" points="95,100 107,105 97,110" />
<polygon fill="#039cd5" fill-opacity="0.501961" points="170,100 120,143 170,142" />
<polygon fill="#6c8caf" fill-opacity="0.501961" points="55,121 54,84 106,121" />
<polygon fill="#edfcfb" fill-opacity="0.501961" points="129,97 243,95 128,-16" />
<polygon fill="#3b1112" fill-opacity="0.501961" points="54,61 22,68 27,50" />
<polygon fill="#ffffff" fill-opacity="0.501961" points="128,91 139,107 129,138" />
<polygon fill="#ffffff" fill-opacity="0.501961" points="256,46 265,-16 247,7" />
<polygon fill="#c4c3c4" fill-opacity="0.501961" points="52,112 27,97 105,98" />
<polygon fill="#94cdd2" fill-opacity="0.501961" points="129,11 39,14 116,32" />
<polygon fill="#061740" fill-opacity="0.501961" points="21,127 -16,136 20,103" />
<polygon fill="#0099c5" fill-opacity="0.501961" points="77,40 82,30 114,33" />
<polygon fill="#0d273a" fill-opacity="0.501961" points="177,-3 174,29 203,30" />
<polygon fill="#ffffff" fill-opacity="0.501961" points="173,52 112,-16 172,-16" />
<polygon fill="#343d40" fill-opacity="0.501961" points="249,30 250,15 229,30" />
<polygon fill="#29225b" fill-opacity="0.501961" points="60,30 -16,23 37,11" />
<polygon fill="#ffffff" fill-opacity="0.501961" points="154,115 159,120 154,108" />
<polygon fill="#1180b2" fill-opacity="0.501961" points="121,76 53,77 62,46" />
<polygon fill="#3f395b" fill-opacity="0.501961" points="54,105 73,77 57,79" />
<polygon fill="#123463" fill-opacity="0.501961" points="45,143 63,97 60,129" />
<polygon fill="#e5f7f7" fill-opacity="0.501961" points="242,31 248,113 125,30" />
<polygon fill="#884c36" fill-opacity="0.501961" points="47,99 46,122 56,128" />
<polygon fill="#5d2a1e" fill-opacity="0.501961" points="39,82 24,105 24,89" />
<polygon fill="#199ed2" fill-opacity="0.501961" points="134,123 135,97 169,96" />
<polygon fill="#11a2cc" fill-opacity="0.501961" points="128,20 127,13 102,15" />
<polygon fill="#e0e1d2" fill-opacity="0.501961" points="121,31 70,28 112,17" />
<polygon fill="#ffffff" fill-opacity="0.501961" points="42,115 47,107 45,93" />
<polygon fill="#ffffff" fill-opacity="0.501961" points="271,119 169,143 172,88" />
<polygon fill="#002535" fill-opacity="0.501961" points="223,3 179,-7 198,-16" />
<polygon fill="#161130" fill-opacity="0.501961" points="6,114 -16,105 1,61" />
<polygon fill="#1b1328" fill-opacity="0.501961" points="25,143 24,104 34,125" />
<polygon fill="#deb058" fill-opacity="0.501961" points="53,82 53,61 18,73" />
<polygon fill="#aed8d0" fill-opacity="0.501961" points="109,44 67,38 91,58" />
<polygon fill="#005395" fill-opacity="0.501961" points="17,60 18,38 -16,37" />
<polygon fill="#ffffff" fill-opacity="0.501961" points="83,99 79,91 79,107" />
<polygon fill="#ffffff" fill-opacity="0.501961" points="120,112 117,98 115,114" />
<polygon fill="#005094" fill-opacity="0.501961" points="43,22 88,57 33,53" />
<polygon fill="#bea596" fill-opacity="0.501961" points="233,14 211,1 238,7" />
<polygon fill="#5d3848" fill-opacity="0.501961" points="127,82 127,90 100,81" />
<polygon fill="#ffffff" fill-opacity="0.501961" points="146,105 143,103 137,106" />
<polygon fill="#fffffa" fill-opacity="0.501961" points="169,115 157,119 163,121" />
<polygon fill="#fffffb" fill-opacity="0.501961" points="154,108 163,104 155,103" />
<polygon fill="#3978a1" fill-opacity="0.501961" points="115,98 56,96 85,86" />
<polygon fill="#009af0" fill-opacity="0.501961" points="177,-2 188,-4 174,8" />
<polygon fill="#430d00" fill-opacity="0.501961" points="41,86 57,84 49,89" />
<polygon fill="#f0fcfd" fill-opacity="0.501961" points="135,112 142,123 137,106" />
<polygon fill="#0086ce" fill-opacity="0.501961" points="165,122 138,120 123,143" />
<polygon fill="#25223e" fill-opacity="0.501961" points="23,91 2,58 28,57" />
<polygon fill="#9e612c" fill-opacity="0.501961" points="30,75 40,62 43,110" />
<polygon fill="#ffffff" fill-opacity="0.501961" points="62,109 64,99 66,112" />
<polygon fill="#ffffff" fill-opacity="0.501961" points="18,101 13,103 21,103" />
<polygon fill="#252d67" fill-opacity="0.501961" points="-16,33 -4,-14 39,32" />
<polygon fill="#b6cfd7" fill-opacity="0.501961" points="242,7 250,16 248,5" />
<polygon fill="#f0dfe5" fill-opacity="0.501961" points="27,109 34,115 29,97" />
<polygon fill="#3c0204" fill-opacity="0.501961" points="40,107 29,107 31,111" />
<polygon fill="#03b2f5" fill-opacity="0.501961" points="191,-16 210,6 199,5" />
<polygon fill="#396184" fill-opacity="0.501961" points="126,115 91,114 129,135" />
<polygon fill="#fffffe" fill-opacity="0.501961" points="269,31 176,30 215,48" />
<polygon fill="#57374a" fill-opacity="0.501961" points="89,77 111,87 52,87" />
<polygon fill="#0083be" fill-opacity="0.501961" points="113,2 48,13 -16,-12" />
<polygon fill="#c8bda3" fill-opacity="0.501961" points="224,26 226,31 237,28" />
<polygon fill="#ffffff" fill-opacity="0.501961" points="147,120 142,120 150,116" />
<polygon fill="#131831" fill-opacity="0.501961" points="21,100 10,98 16,58" />
<polygon fill="#ffffff" fill-opacity="0.501961" points="201,-16 150,17 113,9" />
<polygon fill="#cdc8d2" fill-opacity="0.501961" points="182,2 196,4 196,-16" />
<polygon fill="#38344d" fill-opacity="0.501961" points="41,125 72,114 14,114" />
<polygon fill="#0091c0" fill-opacity="0.501961" points="127,46 126,31 111,31" />
</g>
</svg>