<svg xmlns="http://www.w3.org/2000/svg" version="1.1" width="1024" height="1024">
<rect x="0" y="0" width="1024" height="1024" fill="#d7d7d7" />
<g transform="scale(4.000000) translate(0.5 0.5)">
<polygon fill="#686868" fill-opacity="0.501961" points="-16,19 235,14 92,57" />
<polygon fill="#696969" fill-opacity="0.501961" points="-7,176 238,172 112,139" />
<polygon fill="#606060" fill-opacity="0.501961" points="-16,110 181,111 107,76" />
<polygon fill="#000000" fill-opacity="0.501961" points="164,205 181,214 154,246" />
<polygon fill="#000000" fill-opacity="0.501961" points="229,46 210,47 214,12" />
<polygon fill="#6e6e6e" fill-opacity="0.501961" points="6,224 137,242 148,205" />
<polygon fill="#414141" fill-opacity="0.501961" points="227,81 227,111 147,79" />
<polygon fill="#ffffff" fill-opacity="0.501961" points="271,56 60,100 76,45" />
<polygon fill="#000000" fill-opacity="0.501961" points="197,33 180,16 181,48" />
<polygon fill="#ffffff" fill-opacity="0.501961" points="271,266 131,263 261,151" />
<polygon fill="#000000" fill-opacity="0.501961" points="209,176 215,138 224,173" />
<polygon fill="#000000" fill-opacity="0.501961" points="181,144 193,179 200,142" />
<polygon fill="#ffffff" fill-opacity="0.501961" points="271,121 114,158 -10,107" />
<polygon fill="#000000" fill-opacity="0.501961" points="27,141 28,181 19,158" />
<polygon fill="#000000" fill-opacity="0.501961" points="33,96 20,77 21,112" />
<polygon fill="#000000" fill-opacity="0.501961" points="171,114 162,93 171,78" />
<polygon fill="#000000" fill-opacity="0.501961" points="51,147 56,181 61,142" />
<polygon fill="#000000" fill-opacity="0.501961" points="115,140 121,179 125,146" />
<polygon fill="#ffffff" fill-opacity="0.501961" points="-16,154 19,23 20,271" />
<polygon fill="#ffffff" fill-opacity="0.501961" points="-3,206 271,207 156,162" />
<polygon fill="#000000" fill-opacity="0.501961" points="169,46 150,47 148,16" />
<polygon fill="#000000" fill-opacity="0.501961" points="18,14 22,50 35,17" />
<polygon fill="#000000" fill-opacity="0.501961" points="112,98 99,110 101,75" />
<polygon fill="#000000" fill-opacity="0.501961" points="27,233 27,199 19,216" />
<polygon fill="#000000" fill-opacity="0.501961" points="67,47 53,12 52,47" />
<polygon fill="#000000" fill-opacity="0.501961" points="94,90 84,77 86,113" />
<polygon fill="#000000" fill-opacity="0.501961" points="59,237 48,213 59,206" />
<polygon fill="#000000" fill-opacity="0.501961" points="142,82 132,82 136,118" />
<polygon fill="#000000" fill-opacity="0.501961" points="52,79 54,114 61,89" />
<polygon fill="#000000" fill-opacity="0.501961" points="83,168 91,137 93,176" />
<polygon fill="#ffffff" fill-opacity="0.501961" points="251,-16 225,128 271,223" />
<polygon fill="#000000" fill-opacity="0.501961" points="95,48 83,45 87,12" />
<polygon fill="#ffffff" fill-opacity="0.501961" points="195,198 140,112 140,21" />
<polygon fill="#ffffff" fill-opacity="0.501961" points="123,-1 93,114 92,-16" />
<polygon fill="#000000" fill-opacity="0.501961" points="94,205 119,236 98,228" />
<polygon fill="#000000" fill-opacity="0.501961" points="115,19 121,56 126,12" />
<polygon fill="#000000" fill-opacity="0.501961" points="214,112 204,109 206,78" />
<polygon fill="#000000" fill-opacity="0.501961" points="138,242 124,206 140,220" />
<polygon fill="#000000" fill-opacity="0.501961" points="156,143 147,149 155,177" />
<polygon fill="#ffffff" fill-opacity="0.501961" points="87,204 84,159 -16,208" />
<polygon fill="#ffffff" fill-opacity="0.501961" points="23,-6 4,143 -16,2" />
<polygon fill="#ffffff" fill-opacity="0.501961" points="115,187 116,268 142,264" />
<polygon fill="#000000" fill-opacity="0.501961" points="180,236 165,240 154,234" />
<polygon fill="#ffffff" fill-opacity="0.501961" points="57,271 -16,239 169,239" />
<polygon fill="#ffffff" fill-opacity="0.501961" points="197,148 271,257 192,265" />
<polygon fill="#ffffff" fill-opacity="0.501961" points="219,-16 101,12 271,17" />
<polygon fill="#000000" fill-opacity="0.501961" points="228,143 234,173 236,143" />
<polygon fill="#ffffff" fill-opacity="0.501961" points="130,48 -3,47 -11,88" />
<polygon fill="#ffffff" fill-opacity="0.501961" points="55,-7 85,-16 82,47" />
<polygon fill="#ffffff" fill-opacity="0.501961" points="165,143 -11,143 33,105" />
<polygon fill="#ffffff" fill-opacity="0.501961" points="201,109 184,54 215,-16" />
<polygon fill="#ffffff" fill-opacity="0.501961" points="217,83 203,144 232,139" />
<polygon fill="#ffffff" fill-opacity="0.501961" points="155,42 178,-16 179,42" />
<polygon fill="#ffffff" fill-opacity="0.501961" points="19,-14 56,-5 48,41" />
<polygon fill="#ffffff" fill-opacity="0.501961" points="112,-16 147,-16 148,45" />
<polygon fill="#000000" fill-opacity="0.501961" points="112,46 84,47 86,40" />
<polygon fill="#000000" fill-opacity="0.501961" points="43,80 43,112 36,96" />
<polygon fill="#000000" fill-opacity="0.501961" points="164,112 165,81 173,112" />
<polygon fill="#000000" fill-opacity="0.501961" points="143,159 117,159 116,176" />
<polygon fill="#000000" fill-opacity="0.501961" points="221,141 214,174 212,144" />
<polygon fill="#ffffff" fill-opacity="0.501961" points="99,119 112,183 120,98" />
<polygon fill="#000000" fill-opacity="0.501961" points="223,16 212,47 213,15" />
<polygon fill="#ffffff" fill-opacity="0.501961" points="87,209 81,253 127,262" />
<polygon fill="#000000" fill-opacity="0.501961" points="61,175 58,143 50,174" />
<polygon fill="#ffffff" fill-opacity="0.501961" points="155,133 190,86 187,172" />
<polygon fill="#ffffff" fill-opacity="0.501961" points="37,191 51,138 52,219" />
<polygon fill="#000000" fill-opacity="0.501961" points="134,112 132,105 156,109" />
<polygon fill="#ffffff" fill-opacity="0.501961" points="60,97 85,108 60,17" />
<polygon fill="#000000" fill-opacity="0.501961" points="236,31 226,31 235,44" />
<polygon fill="#000000" fill-opacity="0.501961" points="190,99 195,113 195,87" />
<polygon fill="#ffffff" fill-opacity="0.501961" points="107,183 60,235 61,163" />
<polygon fill="#000000" fill-opacity="0.501961" points="188,15 186,46 179,19" />
<polygon fill="#000000" fill-opacity="0.501961" points="156,176 147,168 170,173" />
<polygon fill="#000000" fill-opacity="0.501961" points="23,106 21,78 28,81" />
<polygon fill="#000000" fill-opacity="0.501961" points="99,79 104,111 108,80" />
<polygon fill="#000000" fill-opacity="0.501961" points="44,34 33,18 43,51" />
<polygon fill="#000000" fill-opacity="0.501961" points="161,240 180,210 155,230" />
<polygon fill="#ffffff" fill-opacity="0.501961" points="149,210 171,212 135,248" />
<polygon fill="#ffffff" fill-opacity="0.501961" points="131,121 131,53 109,45" />
<polygon fill="#000000" fill-opacity="0.501961" points="82,15 95,15 88,40" />
<polygon fill="#000000" fill-opacity="0.501961" points="32,239 43,215 44,230" />
<polygon fill="#000000" fill-opacity="0.501961" points="183,143 195,168 195,145" />
<polygon fill="#000000" fill-opacity="0.501961" points="26,174 19,148 28,145" />
<polygon fill="#000000" fill-opacity="0.501961" points="54,46 64,17 52,13" />
<polygon fill="#000000" fill-opacity="0.501961" points="27,46 20,21 20,47" />
<polygon fill="#000000" fill-opacity="0.501961" points="73,51 68,20 76,35" />
<polygon fill="#ffffff" fill-opacity="0.501961" points="230,207 127,164 112,206" />
<polygon fill="#ffffff" fill-opacity="0.501961" points="261,93 270,47 107,48" />
<polygon fill="#000000" fill-opacity="0.501961" points="162,143 149,144 174,152" />
<polygon fill="#ffffff" fill-opacity="0.501961" points="136,36 125,20 123,43" />
<polygon fill="#000000" fill-opacity="0.501961" points="30,145 40,154 43,168" />
<polygon fill="#000000" fill-opacity="0.501961" points="117,39 118,46 142,47" />
<polygon fill="#000000" fill-opacity="0.501961" points="228,109 220,88 226,79" />
<polygon fill="#000000" fill-opacity="0.501961" points="131,109 141,107 134,77" />
<polygon fill="#000000" fill-opacity="0.501961" points="205,110 216,78 206,81" />
<polygon fill="#ffffff" fill-opacity="0.501961" points="134,110 151,125 144,176" />
<polygon fill="#000000" fill-opacity="0.501961" points="157,46 147,45 155,13" />
<polygon fill="#1f1f1f" fill-opacity="0.501961" points="139,151 129,143 139,177" />
<polygon fill="#ffffff" fill-opacity="0.501961" points="32,-16 100,-12 28,29" />
<polygon fill="#000000" fill-opacity="0.501961" points="74,152 66,143 51,143" />
</g>
</svg>