<svg xmlns="http://www.w3.org/2000/svg" version="1.1" width="464" height="1024">
<rect x="0" y="0" width="464" height="1024" fill="#e5e2e6" />
<g transform="scale(4.000000) translate(0.5 0.5)">
<polygon fill="#535191" fill-opacity="0.501961" points="89,135 87,190 21,158" />
<polygon fill="#00515a" fill-opacity="0.501961" points="61,239 21,205 18,238" />
<polygon fill="#660006" fill-opacity="0.501961" points="24,4 25,67 36,37" />
<polygon fill="#00545f" fill-opacity="0.501961" points="94,243 66,208 44,207" />
<polygon fill="#593125" fill-opacity="0.501961" points="67,96 72,67 37,121" />
<polygon fill="#683526" fill-opacity="0.501961" points="17,126 25,96 50,75" />
<polygon fill="#633c30" fill-opacity="0.501961" points="63,114 90,80 71,126" />
<polygon fill="#9d3942" fill-opacity="0.501961" points="95,59 49,15 68,14" />
<polygon fill="#ffffff" fill-opacity="0.501961" points="80,120 123,-16 115,265" />
<polygon fill="#ffffff" fill-opacity="0.501961" points="-1,261 44,127 1,-16" />
<polygon fill="#700002" fill-opacity="0.501961" points="38,39 61,62 44,30" />
<polygon fill="#454377" fill-opacity="0.501961" points="90,142 52,137 88,168" />
<polygon fill="#ffffff" fill-opacity="0.501961" points="78,214 -14,183 123,184" />
<polygon fill="#ffffff" fill-opacity="0.501961" points="23,269 79,271 35,226" />
<polygon fill="#08606a" fill-opacity="0.501961" points="46,206 61,206 26,239" />
<polygon fill="#ffffff" fill-opacity="0.501961" points="51,112 83,63 54,181" />
<polygon fill="#403d72" fill-opacity="0.501961" points="58,181 94,184 58,152" />
<polygon fill="#ffffff" fill-opacity="0.501961" points="131,11 -16,16 47,-16" />
<polygon fill="#ffffff" fill-opacity="0.501961" points="28,187 28,226 66,187" />
<polygon fill="#ffffff" fill-opacity="0.501961" points="56,17 105,79 56,69" />
<polygon fill="#9e6b5f" fill-opacity="0.501961" points="16,101 49,85 18,123" />
<polygon fill="#002c37" fill-opacity="0.501961" points="32,235 22,208 20,240" />
<polygon fill="#307d84" fill-opacity="0.501961" points="95,208 90,237 86,206" />
<polygon fill="#ffffff" fill-opacity="0.501961" points="68,271 -16,240 131,239" />
<polygon fill="#ffffff" fill-opacity="0.501961" points="87,176 76,156 51,144" />
<polygon fill="#7e0e35" fill-opacity="0.501961" points="32,18 33,63 23,51" />
<polygon fill="#ffffff" fill-opacity="0.501961" points="95,-16 89,207 131,66" />
<polygon fill="#ffffff" fill-opacity="0.501961" points="32,94 51,60 33,29" />
<polygon fill="#3e231c" fill-opacity="0.501961" points="85,84 95,77 81,99" />
<polygon fill="#472e28" fill-opacity="0.501961" points="42,124 43,111 57,98" />
<polygon fill="#26747e" fill-opacity="0.501961" points="94,237 82,240 60,215" />
<polygon fill="#a96b5d" fill-opacity="0.501961" points="64,79 72,123 52,84" />
<polygon fill="#ffffff" fill-opacity="0.501961" points="131,139 131,102 22,139" />
<polygon fill="#7e77c2" fill-opacity="0.501961" points="27,159 52,180 51,140" />
<polygon fill="#b25c63" fill-opacity="0.501961" points="61,61 42,28 48,61" />
<polygon fill="#ffffff" fill-opacity="0.501961" points="94,52 131,188 94,271" />
<polygon fill="#ffffff" fill-opacity="0.501961" points="-16,188 17,62 19,271" />
<polygon fill="#ffffff" fill-opacity="0.501961" points="82,225 41,188 92,183" />
<polygon fill="#ffffff" fill-opacity="0.501961" points="92,-9 43,-16 89,44" />
<polygon fill="#615d8d" fill-opacity="0.501961" points="90,171 78,140 54,139" />
<polygon fill="#ffffff" fill-opacity="0.501961" points="74,269 29,220 51,267" />
<polygon fill="#ffffff" fill-opacity="0.501961" points="53,212 86,245 67,263" />
<polygon fill="#ffffff" fill-opacity="0.501961" points="10,165 26,-16 -16,28" />
<polygon fill="#b95e60" fill-opacity="0.501961" points="91,61 70,31 91,46" />
<polygon fill="#54001a" fill-opacity="0.501961" points="71,24 49,15 62,15" />
<polygon fill="#ffffff" fill-opacity="0.501961" points="92,63 71,38 68,117" />
<polygon fill="#00404a" fill-opacity="0.501961" points="20,210 21,231 27,207" />
<polygon fill="#821b3d" fill-opacity="0.501961" points="21,14 31,29 33,16" />
<polygon fill="#54403b" fill-opacity="0.501961" points="50,69 45,84 33,92" />
<polygon fill="#ffffff" fill-opacity="0.501961" points="61,77 5,61 83,61" />
<polygon fill="#ffffff" fill-opacity="0.501961" points="60,98 18,166 66,125" />
<polygon fill="#473937" fill-opacity="0.501961" points="30,105 19,120 27,99" />
<polygon fill="#ffffff" fill-opacity="0.501961" points="12,126 -16,126 26,102" />
<polygon fill="#c194c8" fill-opacity="0.501961" points="23,140 23,155 42,139" />
<polygon fill="#ffffff" fill-opacity="0.501961" points="58,185 56,145 50,166" />
<polygon fill="#583f3b" fill-opacity="0.501961" points="65,121 83,93 76,115" />
<polygon fill="#ffffff" fill-opacity="0.501961" points="28,189 51,202 28,226" />
<polygon fill="#ffffff" fill-opacity="0.501961" points="72,123 131,173 109,49" />
<polygon fill="#ffffff" fill-opacity="0.501961" points="58,18 45,32 98,76" />
<polygon fill="#ffffff" fill-opacity="0.501961" points="36,-16 70,-10 32,42" />
<polygon fill="#ffffff" fill-opacity="0.501961" points="21,138 34,99 60,86" />
<polygon fill="#8e344f" fill-opacity="0.501961" points="18,62 31,62 33,51" />
<polygon fill="#ffffff" fill-opacity="0.501961" points="131,220 117,187 74,164" />
<polygon fill="#d58c7b" fill-opacity="0.501961" points="44,85 32,99 65,81" />
<polygon fill="#ffffff" fill-opacity="0.501961" points="51,62 30,95 -16,61" />
<polygon fill="#ffffff" fill-opacity="0.501961" points="131,13 91,-16 -16,14" />
<polygon fill="#ffffff" fill-opacity="0.501961" points="16,269 -16,227 24,123" />
<polygon fill="#b45356" fill-opacity="0.501961" points="88,14 96,16 91,22" />
<polygon fill="#ffffff" fill-opacity="0.501961" points="123,227 89,233 116,264" />
<polygon fill="#ffffff" fill-opacity="0.501961" points="7,259 37,232 73,255" />
<polygon fill="#347a84" fill-opacity="0.501961" points="47,235 35,220 45,210" />
<polygon fill="#44417c" fill-opacity="0.501961" points="59,183 69,183 60,176" />
<polygon fill="#ffffff" fill-opacity="0.501961" points="-16,10 22,-16 24,63" />
<polygon fill="#4f0523" fill-opacity="0.501961" points="37,37 43,32 46,39" />
<polygon fill="#ffffff" fill-opacity="0.501961" points="65,133 62,95 31,151" />
<polygon fill="#6e6a96" fill-opacity="0.501961" points="88,139 57,141 90,172" />
<polygon fill="#0c636c" fill-opacity="0.501961" points="19,228 29,206 19,206" />
<polygon fill="#5e443e" fill-opacity="0.501961" points="88,79 86,89 93,76" />
<polygon fill="#689ba1" fill-opacity="0.501961" points="86,222 93,207 93,235" />
<polygon fill="#cea5d4" fill-opacity="0.501961" points="24,164 21,184 41,182" />
<polygon fill="#ffffff" fill-opacity="0.501961" points="19,206 106,203 22,182" />
<polygon fill="#ffffff" fill-opacity="0.501961" points="81,257 45,222 58,216" />
<polygon fill="#564846" fill-opacity="0.501961" points="51,103 65,91 68,76" />
<polygon fill="#ffffff" fill-opacity="0.501961" points="90,76 131,69 105,-16" />
<polygon fill="#ffffff" fill-opacity="0.501961" points="59,116 9,136 92,138" />
<polygon fill="#7f1f3b" fill-opacity="0.501961" points="20,61 26,57 35,61" />
<polygon fill="#5e443e" fill-opacity="0.501961" points="50,111 41,122 40,118" />
<polygon fill="#8f3853" fill-opacity="0.501961" points="25,14 25,27 36,14" />
<polygon fill="#2c7781" fill-opacity="0.501961" points="56,236 49,238 42,221" />
<polygon fill="#4f3f3c" fill-opacity="0.501961" points="24,109 19,121 17,118" />
<polygon fill="#ffffff" fill-opacity="0.501961" points="34,60 49,59 37,34" />
<polygon fill="#3d7f89" fill-opacity="0.501961" points="83,230 55,213 60,205" />
<polygon fill="#b5887e" fill-opacity="0.501961" points="47,112 58,114 36,95" />
<polygon fill="#ffffff" fill-opacity="0.501961" points="131,238 -8,242 93,271" />
<polygon fill="#ffffff" fill-opacity="0.501961" points="87,2 93,50 45,-16" />
<polygon fill="#005d66" fill-opacity="0.501961" points="35,232 23,238 21,218" />
<polygon fill="#ffffff" fill-opacity="0.501961" points="90,188 38,183 81,226" />
<polygon fill="#ffffff" fill-opacity="0.501961" points="98,271 89,89 131,205" />
<polygon fill="#938ec3" fill-opacity="0.501961" points="50,141 30,160 52,179" />
<polygon fill="#ffffff" fill-opacity="0.501961" points="43,86 64,77 52,71" />
</g>
</svg>