<svg xmlns="http://www.w3.org/2000/svg" version="1.1" width="788" height="1024">
<rect x="0" y="0" width="788" height="1024" fill="#a65758" />
<g transform="scale(4.000000) translate(0.5 0.5)">
<polygon fill="#d8ffff" fill-opacity="0.501961" points="113,164 191,151 138,250" />
<polygon fill="#dfffff" fill-opacity="0.501961" points="70,61 212,68 2,0" />
<polygon fill="#000000" fill-opacity="0.501961" points="212,36 143,-16 75,37" />
<polygon fill="#fdffff" fill-opacity="0.501961" points="15,230 -16,195 67,209" />
<polygon fill="#fcffff" fill-opacity="0.501961" points="50,107 -16,96 23,130" />
<polygon fill="#a50000" fill-opacity="0.501961" points="33,124 95,181 -16,208" />
<polygon fill="#b60107" fill-opacity="0.501961" points="212,115 -16,96 50,53" />
<polygon fill="#9d0000" fill-opacity="0.501961" points="84,218 60,271 212,250" />
<polygon fill="#609d9a" fill-opacity="0.501961" points="115,100 128,175 48,155" />
<polygon fill="#c70006" fill-opacity="0.501961" points="207,100 196,216 146,63" />
<polygon fill="#cde1e4" fill-opacity="0.501961" points="116,177 174,131 172,227" />
<polygon fill="#d60b13" fill-opacity="0.501961" points="4,13 110,-16 212,14" />
<polygon fill="#2c0f19" fill-opacity="0.501961" points="126,110 167,134 112,179" />
<polygon fill="#d7f1f0" fill-opacity="0.501961" points="96,32 12,35 52,1" />
<polygon fill="#000000" fill-opacity="0.501961" points="212,16 86,14 183,42" />
<polygon fill="#b1e3eb" fill-opacity="0.501961" points="152,48 207,46 212,99" />
<polygon fill="#000000" fill-opacity="0.501961" points="-16,26 23,6 16,33" />
<polygon fill="#5a0000" fill-opacity="0.501961" points="55,160 101,163 55,224" />
<polygon fill="#5e0000" fill-opacity="0.501961" points="86,36 38,34 52,44" />
<polygon fill="#b20001" fill-opacity="0.501961" points="133,270 212,157 212,268" />
<polygon fill="#bb2226" fill-opacity="0.501961" points="40,146 160,64 53,65" />
<polygon fill="#c4eef1" fill-opacity="0.501961" points="79,221 103,168 105,202" />
<polygon fill="#d30004" fill-opacity="0.501961" points="137,55 203,36 138,36" />
<polygon fill="#faffff" fill-opacity="0.501961" points="56,43 112,37 134,59" />
<polygon fill="#e1ffff" fill-opacity="0.501961" points="45,105 -16,96 47,125" />
<polygon fill="#ffffff" fill-opacity="0.501961" points="62,215 -16,210 31,199" />
<polygon fill="#d6ffb7" fill-opacity="0.501961" points="8,243 63,244 50,232" />
<polygon fill="#cfe5e8" fill-opacity="0.501961" points="132,239 121,186 168,215" />
<polygon fill="#5d0000" fill-opacity="0.501961" points="95,237 132,240 120,199" />
<polygon fill="#38060a" fill-opacity="0.501961" points="112,173 92,150 68,186" />
<polygon fill="#e3fefe" fill-opacity="0.501961" points="89,14 89,37 59,15" />
<polygon fill="#bd2e32" fill-opacity="0.501961" points="-1,14 86,12 0,-16" />
<polygon fill="#374735" fill-opacity="0.501961" points="95,56 95,84 67,61" />
<polygon fill="#dfeaef" fill-opacity="0.501961" points="116,176 104,133 96,152" />
<polygon fill="#000000" fill-opacity="0.501961" points="212,32 145,14 85,35" />
<polygon fill="#ffffff" fill-opacity="0.501961" points="4,141 18,130 23,140" />
<polygon fill="#aaddec" fill-opacity="0.501961" points="89,118 83,162 67,158" />
<polygon fill="#ffffff" fill-opacity="0.501961" points="49,31 22,16 16,33" />
<polygon fill="#9a171a" fill-opacity="0.501961" points="52,230 59,119 85,240" />
<polygon fill="#ffffff" fill-opacity="0.501961" points="5,117 33,101 -16,102" />
<polygon fill="#ffffff" fill-opacity="0.501961" points="55,217 5,221 31,226" />
<polygon fill="#06151a" fill-opacity="0.501961" points="80,139 53,158 73,128" />
<polygon fill="#f2a2a2" fill-opacity="0.501961" points="135,77 111,90 160,88" />
<polygon fill="#dab6b4" fill-opacity="0.501961" points="56,89 74,99 94,88" />
<polygon fill="#ffffff" fill-opacity="0.501961" points="141,55 72,52 109,64" />
<polygon fill="#cf292d" fill-opacity="0.501961" points="-16,169 73,102 51,173" />
<polygon fill="#c0cfcc" fill-opacity="0.501961" points="210,47 152,48 168,75" />
<polygon fill="#c9cad3" fill-opacity="0.501961" points="140,133 176,152 180,206" />
<polygon fill="#e2eef1" fill-opacity="0.501961" points="97,115 71,131 102,128" />
<polygon fill="#ac1214" fill-opacity="0.501961" points="50,227 38,239 -8,223" />
<polygon fill="#b11116" fill-opacity="0.501961" points="212,22 186,-16 68,7" />
<polygon fill="#870f00" fill-opacity="0.501961" points="22,122 -15,123 35,136" />
<polygon fill="#ffffff" fill-opacity="0.501961" points="58,52 62,59 87,53" />
<polygon fill="#ac080f" fill-opacity="0.501961" points="-14,74 38,70 69,122" />
<polygon fill="#e16b6b" fill-opacity="0.501961" points="-16,40 59,43 31,77" />
<polygon fill="#606e6d" fill-opacity="0.501961" points="5,116 42,117 25,106" />
<polygon fill="#6ef438" fill-opacity="0.501961" points="2,247 29,247 9,232" />
<polygon fill="#580000" fill-opacity="0.501961" points="122,212 103,168 117,174" />
<polygon fill="#454647" fill-opacity="0.501961" points="141,181 156,194 156,180" />
<polygon fill="#f06866" fill-opacity="0.501961" points="88,239 44,189 66,235" />
<polygon fill="#f5c0be" fill-opacity="0.501961" points="8,3 47,3 33,10" />
<polygon fill="#0b0000" fill-opacity="0.501961" points="64,41 59,37 62,20" />
<polygon fill="#6c6c6c" fill-opacity="0.501961" points="140,61 180,60 174,49" />
<polygon fill="#accacb" fill-opacity="0.501961" points="100,23 117,20 112,28" />
<polygon fill="#000000" fill-opacity="0.501961" points="90,22 98,8 100,34" />
<polygon fill="#475e80" fill-opacity="0.501961" points="179,89 204,79 181,62" />
<polygon fill="#000000" fill-opacity="0.501961" points="86,16 85,27 79,28" />
<polygon fill="#030000" fill-opacity="0.501961" points="35,11 40,14 37,26" />
<polygon fill="#ffffff" fill-opacity="0.501961" points="-16,125 20,108 11,96" />
<polygon fill="#3e7697" fill-opacity="0.501961" points="63,233 72,252 43,251" />
<polygon fill="#ffffff" fill-opacity="0.501961" points="98,36 125,47 58,47" />
<polygon fill="#b50b14" fill-opacity="0.501961" points="47,196 -16,126 -13,204" />
<polygon fill="#820000" fill-opacity="0.501961" points="54,29 60,39 51,55" />
<polygon fill="#c2050e" fill-opacity="0.501961" points="161,78 131,61 101,77" />
<polygon fill="#eec97f" fill-opacity="0.501961" points="105,122 113,144 123,117" />
<polygon fill="#9e0f1d" fill-opacity="0.501961" points="119,171 167,135 150,117" />
<polygon fill="#275552" fill-opacity="0.501961" points="119,112 121,165 146,120" />
<polygon fill="#080000" fill-opacity="0.501961" points="17,17 -16,20 15,38" />
<polygon fill="#d7504e" fill-opacity="0.501961" points="190,172 176,227 153,236" />
<polygon fill="#6f7b7b" fill-opacity="0.501961" points="135,47 93,48 115,54" />
<polygon fill="#1e2021" fill-opacity="0.501961" points="104,139 93,129 78,142" />
<polygon fill="#dd807e" fill-opacity="0.501961" points="46,154 63,136 46,186" />
<polygon fill="#e5f8f7" fill-opacity="0.501961" points="31,123 28,97 50,116" />
<polygon fill="#8097ea" fill-opacity="0.501961" points="143,131 153,135 142,146" />
<polygon fill="#c7272b" fill-opacity="0.501961" points="96,33 131,33 105,41" />
<polygon fill="#cd7978" fill-opacity="0.501961" points="99,246 70,230 129,243" />
<polygon fill="#ffffff" fill-opacity="0.501961" points="127,39 94,40 138,51" />
<polygon fill="#f5ffff" fill-opacity="0.501961" points="161,62 160,74 188,63" />
<polygon fill="#ad0000" fill-opacity="0.501961" points="-16,27 -16,42 36,39" />
<polygon fill="#74191b" fill-opacity="0.501961" points="98,188 98,217 90,215" />
<polygon fill="#ffffff" fill-opacity="0.501961" points="26,125 6,118 48,117" />
<polygon fill="#e85c5b" fill-opacity="0.501961" points="145,112 113,103 76,115" />
<polygon fill="#e2faf9" fill-opacity="0.501961" points="51,13 92,14 67,23" />
<polygon fill="#af0003" fill-opacity="0.501961" points="212,32 209,47 159,47" />
<polygon fill="#e3fdff" fill-opacity="0.501961" points="84,211 103,205 87,201" />
<polygon fill="#dd5e59" fill-opacity="0.501961" points="186,174 181,138 156,113" />
<polygon fill="#6f060b" fill-opacity="0.501961" points="78,7 71,15 44,11" />
<polygon fill="#000000" fill-opacity="0.501961" points="97,14 212,23 143,37" />
<polygon fill="#d0ffff" fill-opacity="0.501961" points="110,213 115,200 112,190" />
<polygon fill="#66080b" fill-opacity="0.501961" points="66,143 59,205 81,231" />
</g>
</svg>