<svg xmlns="http://www.w3.org/2000/svg" version="1.1" width="1024" height="660">
<rect x="0" y="0" width="1024" height="660" fill="#dbdbd8" />
<g transform="scale(4.000000) translate(0.5 0.5)">
<polygon fill="#000000" fill-opacity="0.501961" points="120,180 -16,158 121,108" />
<polygon fill="#121c14" fill-opacity="0.501961" points="121,117 -7,117 12,180" />
<polygon fill="#331900" fill-opacity="0.501961" points="54,44 16,34 28,-16" />
<polygon fill="#ffffff" fill-opacity="0.501961" points="255,180 -16,59 255,-16" />
<polygon fill="#0c0c00" fill-opacity="0.501961" points="2,163 120,116 120,175" />
<polygon fill="#ffffff" fill-opacity="0.501961" points="115,-16 264,124 -16,111" />
<polygon fill="#f6ffff" fill-opacity="0.501961" points="48,145 -5,140 42,132" />
<polygon fill="#fffffe" fill-opacity="0.501961" points="271,3 158,180 46,-13" />
<polygon fill="#000000" fill-opacity="0.501961" points="54,22 16,25 31,36" />
<polygon fill="#c7c1a6" fill-opacity="0.501961" points="113,129 83,129 97,148" />
<polygon fill="#9b998c" fill-opacity="0.501961" points="57,-14 -16,13 59,10" />
<polygon fill="#000000" fill-opacity="0.501961" points="39,178 48,116 66,164" />
<polygon fill="#f9f9f5" fill-opacity="0.501961" points="-14,47 45,144 39,43" />
<polygon fill="#ffffff" fill-opacity="0.501961" points="-16,95 10,56 -1,163" />
<polygon fill="#fdfcfb" fill-opacity="0.501961" points="109,180 251,-16 271,180" />
<polygon fill="#f4fbe3" fill-opacity="0.501961" points="21,7 45,6 -1,27" />
<polygon fill="#859491" fill-opacity="0.501961" points="80,146 79,122 58,130" />
<polygon fill="#080200" fill-opacity="0.501961" points="33,136 19,121 28,117" />
<polygon fill="#e77e00" fill-opacity="0.501961" points="36,24 37,10 17,20" />
<polygon fill="#e5e3e1" fill-opacity="0.501961" points="220,110 168,110 195,-4" />
<polygon fill="#b1c3d3" fill-opacity="0.501961" points="17,155 20,130 5,150" />
<polygon fill="#fffffc" fill-opacity="0.501961" points="-9,116 47,88 135,117" />
<polygon fill="#000815" fill-opacity="0.501961" points="20,171 2,137 1,180" />
<polygon fill="#a9a8a5" fill-opacity="0.501961" points="57,44 58,4 37,43" />
<polygon fill="#ffffff" fill-opacity="0.501961" points="122,102 158,180 123,164" />
<polygon fill="#010300" fill-opacity="0.501961" points="120,142 122,162 87,159" />
<polygon fill="#6f777e" fill-opacity="0.501961" points="49,142 5,158 6,144" />
<polygon fill="#ebecea" fill-opacity="0.501961" points="109,12 117,113 38,12" />
<polygon fill="#ffffff" fill-opacity="0.501961" points="269,47 255,-16 33,-3" />
<polygon fill="#e5e1c1" fill-opacity="0.501961" points="125,165 96,161 69,180" />
<polygon fill="#71583f" fill-opacity="0.501961" points="2,12 33,3 7,2" />
<polygon fill="#000000" fill-opacity="0.501961" points="2,130 2,136 15,133" />
<polygon fill="#dbe9e9" fill-opacity="0.501961" points="65,126 60,109 59,145" />
<polygon fill="#000000" fill-opacity="0.501961" points="44,31 41,18 29,34" />
<polygon fill="#000000" fill-opacity="0.501961" points="46,119 46,175 59,132" />
<polygon fill="#080000" fill-opacity="0.501961" points="66,142 70,119 73,143" />
<polygon fill="#6c7d7e" fill-opacity="0.501961" points="54,130 30,125 22,138" />
<polygon fill="#12201f" fill-opacity="0.501961" points="93,136 81,180 80,116" />
<polygon fill="#f1f1f1" fill-opacity="0.501961" points="-16,155 0,7 42,67" />
<polygon fill="#000200" fill-opacity="0.501961" points="99,122 121,116 117,129" />
<polygon fill="#ffffff" fill-opacity="0.501961" points="-16,117 1,180 1,99" />
<polygon fill="#ffffff" fill-opacity="0.501961" points="38,142 20,140 45,136" />
<polygon fill="#dfdfdf" fill-opacity="0.501961" points="241,129 259,156 141,154" />
<polygon fill="#9b9584" fill-opacity="0.501961" points="34,44 16,35 61,34" />
<polygon fill="#9e8c62" fill-opacity="0.501961" points="116,139 94,148 114,147" />
<polygon fill="#231500" fill-opacity="0.501961" points="114,162 110,129 102,137" />
<polygon fill="#c4c0aa" fill-opacity="0.501961" points="93,148 107,131 94,129" />
<polygon fill="#cbdbe5" fill-opacity="0.501961" points="6,137 5,154 20,134" />
<polygon fill="#000000" fill-opacity="0.501961" points="57,122 45,126 45,118" />
<polygon fill="#f3f3f1" fill-opacity="0.501961" points="61,1 55,120 121,100" />
<polygon fill="#dde3d4" fill-opacity="0.501961" points="51,127 52,131 43,131" />
<polygon fill="#ffffff" fill-opacity="0.501961" points="156,117 75,116 192,86" />
<polygon fill="#e6cb9f" fill-opacity="0.501961" points="19,134 21,119 10,114" />
<polygon fill="#5b6861" fill-opacity="0.501961" points="89,161 84,137 92,118" />
<polygon fill="#120400" fill-opacity="0.501961" points="73,121 65,124 67,118" />
<polygon fill="#faf7f1" fill-opacity="0.501961" points="204,166 114,131 198,120" />
<polygon fill="#ffffff" fill-opacity="0.501961" points="270,131 260,21 193,130" />
<polygon fill="#303e00" fill-opacity="0.501961" points="17,20 36,30 20,35" />
<polygon fill="#141b14" fill-opacity="0.501961" points="79,170 108,147 81,147" />
<polygon fill="#dbdbd9" fill-opacity="0.501961" points="144,74 193,88 245,74" />
<polygon fill="#3f3c2a" fill-opacity="0.501961" points="34,118 20,118 25,139" />
<polygon fill="#ffffff" fill-opacity="0.501961" points="219,180 266,156 132,157" />
<polygon fill="#010000" fill-opacity="0.501961" points="-1,180 79,164 3,157" />
<polygon fill="#f1f1ed" fill-opacity="0.501961" points="-16,50 43,128 48,54" />
<polygon fill="#807162" fill-opacity="0.501961" points="21,0 2,17 2,8" />
<polygon fill="#bb6500" fill-opacity="0.501961" points="24,13 38,17 30,29" />
<polygon fill="#4e473e" fill-opacity="0.501961" points="48,142 18,145 18,165" />
<polygon fill="#fffffa" fill-opacity="0.501961" points="115,142 111,142 111,139" />
<polygon fill="#ffffff" fill-opacity="0.501961" points="58,-11 -16,9 -16,-15" />
<polygon fill="#968375" fill-opacity="0.501961" points="51,5 14,6 29,-4" />
<polygon fill="#000705" fill-opacity="0.501961" points="29,130 26,136 32,133" />
<polygon fill="#0f1b10" fill-opacity="0.501961" points="118,129 80,119 121,118" />
<polygon fill="#ffffff" fill-opacity="0.501961" points="122,2 149,95 123,177" />
<polygon fill="#d9c9c9" fill-opacity="0.501961" points="154,135 166,128 128,127" />
<polygon fill="#bdc4ca" fill-opacity="0.501961" points="57,44 41,14 59,1" />
<polygon fill="#050f0d" fill-opacity="0.501961" points="2,126 2,143 8,132" />
<polygon fill="#dbdde3" fill-opacity="0.501961" points="-16,20 37,4 7,28" />
<polygon fill="#d3d2cf" fill-opacity="0.501961" points="231,32 206,39 184,32" />
<polygon fill="#000000" fill-opacity="0.501961" points="57,127 46,141 57,167" />
<polygon fill="#543f16" fill-opacity="0.501961" points="14,132 23,128 15,136" />
<polygon fill="#201c15" fill-opacity="0.501961" points="64,131 56,155 75,139" />
<polygon fill="#ffffff" fill-opacity="0.501961" points="64,41 48,93 63,121" />
<polygon fill="#ebeae8" fill-opacity="0.501961" points="136,88 253,89 181,66" />
<polygon fill="#ffffff" fill-opacity="0.501961" points="258,62 271,30 185,40" />
<polygon fill="#e3f2fe" fill-opacity="0.501961" points="41,135 28,136 25,142" />
<polygon fill="#ffffff" fill-opacity="0.501961" points="2,-8 0,107 -16,53" />
<polygon fill="#d6bbb7" fill-opacity="0.501961" points="199,10 209,15 185,13" />
<polygon fill="#ffffff" fill-opacity="0.501961" points="124,96 117,-16 193,-3" />
<polygon fill="#b8c3c7" fill-opacity="0.501961" points="67,127 59,130 70,132" />
<polygon fill="#eff6f4" fill-opacity="0.501961" points="25,142 19,132 14,142" />
<polygon fill="#ffffff" fill-opacity="0.501961" points="13,135 9,135 5,144" />
<polygon fill="#e1e1df" fill-opacity="0.501961" points="230,55 196,67 152,55" />
<polygon fill="#677973" fill-opacity="0.501961" points="74,146 79,131 79,161" />
<polygon fill="#768a99" fill-opacity="0.501961" points="19,156 15,141 5,149" />
<polygon fill="#000000" fill-opacity="0.501961" points="45,29 41,21 25,34" />
<polygon fill="#080f02" fill-opacity="0.501961" points="55,139 42,135 59,134" />
<polygon fill="#b69e80" fill-opacity="0.501961" points="21,134 27,131 11,129" />
<polygon fill="#ffffff" fill-opacity="0.501961" points="4,44 76,44 40,55" />
<polygon fill="#9e9487" fill-opacity="0.501961" points="50,27 59,41 25,44" />
<polygon fill="#faf9f5" fill-opacity="0.501961" points="88,117 -16,80 -15,116" />
</g>
</svg>