<svg xmlns="http://www.w3.org/2000/svg" version="1.1" width="1024" height="1024">
<rect x="0" y="0" width="1024" height="1024" fill="#f9f1ed" />
<g transform="scale(4.000000) translate(0.5 0.5)">
<polygon fill="#ba5b54" fill-opacity="0.501961" points="127,24 75,127 155,118" />
<polygon fill="#aa342a" fill-opacity="0.501961" points="122,158 162,146 73,142" />
<polygon fill="#eecf94" fill-opacity="0.501961" points="117,223 4,190 242,187" />
<polygon fill="#e1b9b6" fill-opacity="0.501961" points="201,118 75,144 65,81" />
<polygon fill="#850000" fill-opacity="0.501961" points="132,62 126,45 111,73" />
<polygon fill="#ffffff" fill-opacity="0.501961" points="271,177 115,196 263,35" />
<polygon fill="#ffffff" fill-opacity="0.501961" points="-16,225 78,144 13,-16" />
<polygon fill="#ffffff" fill-opacity="0.501961" points="114,-16 271,-16 271,258" />
<polygon fill="#a93227" fill-opacity="0.501961" points="176,133 188,109 185,80" />
<polygon fill="#dfa94a" fill-opacity="0.501961" points="40,181 44,213 18,213" />
<polygon fill="#aa352c" fill-opacity="0.501961" points="164,99 169,115 170,79" />
<polygon fill="#ffffff" fill-opacity="0.501961" points="3,271 271,253 120,193" />
<polygon fill="#ffffff" fill-opacity="0.501961" points="91,90 151,-16 -16,4" />
<polygon fill="#ffffff" fill-opacity="0.501961" points="121,149 121,99 102,145" />
<polygon fill="#9a1305" fill-opacity="0.501961" points="118,154 129,142 125,169" />
<polygon fill="#edce96" fill-opacity="0.501961" points="242,213 225,185 143,209" />
<polygon fill="#a62d20" fill-opacity="0.501961" points="68,120 88,128 113,119" />
<polygon fill="#aa352b" fill-opacity="0.501961" points="140,56 141,74 152,74" />
<polygon fill="#bd5100" fill-opacity="0.501961" points="64,212 55,207 50,190" />
<polygon fill="#950300" fill-opacity="0.501961" points="89,88 86,102 83,83" />
<polygon fill="#ffffff" fill-opacity="0.501961" points="3,-16 -16,136 124,47" />
<polygon fill="#c97100" fill-opacity="0.501961" points="155,204 150,213 142,193" />
<polygon fill="#c36100" fill-opacity="0.501961" points="106,210 105,202 119,212" />
<polygon fill="#ffffff" fill-opacity="0.501961" points="107,76 113,112 100,115" />
<polygon fill="#b44f44" fill-opacity="0.501961" points="104,129 102,79 92,117" />
<polygon fill="#cd7b00" fill-opacity="0.501961" points="67,204 70,187 56,213" />
<polygon fill="#a32418" fill-opacity="0.501961" points="66,115 69,85 72,103" />
<polygon fill="#bc4e00" fill-opacity="0.501961" points="169,211 172,199 168,188" />
<polygon fill="#ca7400" fill-opacity="0.501961" points="75,205 77,188 84,213" />
<polygon fill="#c36000" fill-opacity="0.501961" points="202,203 198,213 197,190" />
<polygon fill="#ffffff" fill-opacity="0.501961" points="143,126 133,152 128,92" />
<polygon fill="#bd5000" fill-opacity="0.501961" points="233,203 231,192 227,210" />
<polygon fill="#ffffff" fill-opacity="0.501961" points="-13,188 -6,98 163,186" />
<polygon fill="#bc4f00" fill-opacity="0.501961" points="180,189 185,195 182,210" />
<polygon fill="#a73227" fill-opacity="0.501961" points="126,120 130,129 121,144" />
<polygon fill="#940100" fill-opacity="0.501961" points="141,134 137,148 144,139" />
<polygon fill="#a83125" fill-opacity="0.501961" points="131,30 123,47 125,19" />
<polygon fill="#b14436" fill-opacity="0.501961" points="115,98 107,70 131,41" />
<polygon fill="#c76c00" fill-opacity="0.501961" points="103,195 113,187 103,204" />
<polygon fill="#950400" fill-opacity="0.501961" points="102,124 105,139 115,149" />
<polygon fill="#ffffff" fill-opacity="0.501961" points="135,-16 271,19 130,55" />
<polygon fill="#990f00" fill-opacity="0.501961" points="84,129 94,141 86,118" />
<polygon fill="#fcf7f8" fill-opacity="0.501961" points="169,98 146,82 142,150" />
<polygon fill="#c77972" fill-opacity="0.501961" points="160,134 173,139 146,151" />
<polygon fill="#c77971" fill-opacity="0.501961" points="177,124 160,126 148,107" />
<polygon fill="#c76900" fill-opacity="0.501961" points="220,213 210,206 207,194" />
<polygon fill="#ffffff" fill-opacity="0.501961" points="114,267 -16,184 -16,258" />
<polygon fill="#b53d00" fill-opacity="0.501961" points="97,198 81,199 89,201" />
<polygon fill="#ffffff" fill-opacity="0.501961" points="80,231 56,226 72,188" />
<polygon fill="#ffffff" fill-opacity="0.501961" points="223,152 188,119 203,211" />
<polygon fill="#ffffff" fill-opacity="0.501961" points="151,207 136,168 176,135" />
<polygon fill="#c56700" fill-opacity="0.501961" points="95,191 78,192 85,188" />
<polygon fill="#ffffff" fill-opacity="0.501961" points="108,137 123,86 124,127" />
<polygon fill="#ffffff" fill-opacity="0.501961" points="106,147 89,128 99,117" />
<polygon fill="#ffffff" fill-opacity="0.501961" points="88,-16 71,104 121,41" />
<polygon fill="#ffffff" fill-opacity="0.501961" points="185,191 198,197 181,243" />
<polygon fill="#c97200" fill-opacity="0.501961" points="182,189 181,194 198,188" />
<polygon fill="#d18508" fill-opacity="0.501961" points="155,204 163,186 153,193" />
<polygon fill="#ffffff" fill-opacity="0.501961" points="166,181 168,204 148,226" />
<polygon fill="#ffffff" fill-opacity="0.501961" points="171,203 179,230 179,178" />
<polygon fill="#ffffff" fill-opacity="0.501961" points="257,193 271,271 137,265" />
<polygon fill="#ffffff" fill-opacity="0.501961" points="-16,20 108,-16 98,93" />
<polygon fill="#ad3d32" fill-opacity="0.501961" points="189,86 182,80 184,100" />
<polygon fill="#ffffff" fill-opacity="0.501961" points="141,144 122,180 140,249" />
<polygon fill="#a93327" fill-opacity="0.501961" points="125,117 124,110 137,109" />
<polygon fill="#980900" fill-opacity="0.501961" points="118,54 141,54 120,66" />
<polygon fill="#b8594f" fill-opacity="0.501961" points="121,135 128,159 137,153" />
<polygon fill="#8e0000" fill-opacity="0.501961" points="110,94 112,98 117,88" />
<polygon fill="#930100" fill-opacity="0.501961" points="169,80 169,95 166,85" />
<polygon fill="#b53d00" fill-opacity="0.501961" points="121,188 124,192 110,188" />
<polygon fill="#ce7e00" fill-opacity="0.501961" points="100,206 87,213 81,209" />
<polygon fill="#ffffff" fill-opacity="0.501961" points="98,148 80,123 82,140" />
<polygon fill="#ffffff" fill-opacity="0.501961" points="185,109 251,-16 270,261" />
<polygon fill="#ffffff" fill-opacity="0.501961" points="13,197 35,191 40,197" />
<polygon fill="#ffffff" fill-opacity="0.501961" points="86,103 93,99 90,120" />
<polygon fill="#bf6960" fill-opacity="0.501961" points="143,85 143,121 130,87" />
<polygon fill="#ca7500" fill-opacity="0.501961" points="232,191 221,187 210,191" />
<polygon fill="#ffffff" fill-opacity="0.501961" points="-16,10 124,-16 122,54" />
<polygon fill="#cd7c00" fill-opacity="0.501961" points="148,200 138,191 141,187" />
<polygon fill="#c36200" fill-opacity="0.501961" points="42,192 38,198 42,212" />
<polygon fill="#cc7900" fill-opacity="0.501961" points="125,208 117,214 113,210" />
<polygon fill="#ffffff" fill-opacity="0.501961" points="-16,64 72,-16 61,204" />
<polygon fill="#bc4d00" fill-opacity="0.501961" points="33,213 25,209 23,204" />
<polygon fill="#b53800" fill-opacity="0.501961" points="169,181 168,176 171,179" />
<polygon fill="#ffffff" fill-opacity="0.501961" points="220,189 209,206 229,204" />
<polygon fill="#b43800" fill-opacity="0.501961" points="27,191 33,189 28,188" />
<polygon fill="#ffffff" fill-opacity="0.501961" points="153,93 137,76 171,88" />
<polygon fill="#ffffff" fill-opacity="0.501961" points="59,219 47,271 42,172" />
<polygon fill="#ffffff" fill-opacity="0.501961" points="98,203 76,201 87,209" />
<polygon fill="#c25c00" fill-opacity="0.501961" points="209,208 227,210 219,212" />
<polygon fill="#bb4c00" fill-opacity="0.501961" points="97,198 95,192 93,200" />
<polygon fill="#ffffff" fill-opacity="0.501961" points="152,218 123,215 136,184" />
<polygon fill="#ffffff" fill-opacity="0.501961" points="131,160 158,185 152,204" />
<polygon fill="#ffffff" fill-opacity="0.501961" points="178,81 262,45 122,39" />
<polygon fill="#a83225" fill-opacity="0.501961" points="102,152 116,154 94,140" />
<polygon fill="#ffffff" fill-opacity="0.501961" points="86,78 73,65 75,121" />
<polygon fill="#ffffff" fill-opacity="0.501961" points="97,152 98,219 113,161" />
<polygon fill="#ffffff" fill-opacity="0.501961" points="138,105 142,93 138,87" />
<polygon fill="#ae3e32" fill-opacity="0.501961" points="148,100 154,94 149,107" />
<polygon fill="#ffffff" fill-opacity="0.501961" points="40,199 36,209 26,204" />
</g>
</svg>