<svg xmlns="http://www.w3.org/2000/svg" version="1.1" width="820" height="1024">
<rect x="0" y="0" width="820" height="1024" fill="#9e9392" />
<g transform="scale(4.000000) translate(0.5 0.5)">
<polygon fill="#ffffff" fill-opacity="0.501961" points="220,254 103,107 -16,255" />
<polygon fill="#160000" fill-opacity="0.501961" points="198,-16 220,169 -16,69" />
<polygon fill="#ffffff" fill-opacity="0.501961" points="188,271 220,153 -16,155" />
<polygon fill="#3b2223" fill-opacity="0.501961" points="6,164 -16,-16 220,6" />
<polygon fill="#ffffff" fill-opacity="0.501961" points="-16,153 10,271 220,155" />
<polygon fill="#ffffff" fill-opacity="0.501961" points="208,149 -16,245 202,271" />
<polygon fill="#2e1410" fill-opacity="0.501961" points="70,153 -16,151 95,104" />
<polygon fill="#ffffff" fill-opacity="0.501961" points="-16,254 5,151 220,254" />
<polygon fill="#594545" fill-opacity="0.501961" points="-16,165 2,-16 220,15" />
<polygon fill="#280a01" fill-opacity="0.501961" points="184,153 132,152 125,129" />
<polygon fill="#ffffff" fill-opacity="0.501961" points="97,119 -16,271 220,226" />
<polygon fill="#584343" fill-opacity="0.501961" points="8,-16 -16,157 191,93" />
<polygon fill="#ffffff" fill-opacity="0.501961" points="220,154 -2,153 4,264" />
<polygon fill="#5a4646" fill-opacity="0.501961" points="63,150 220,-9 -16,2" />
<polygon fill="#ffffff" fill-opacity="0.501961" points="203,159 -16,180 203,250" />
<polygon fill="#ffffff" fill-opacity="0.501961" points="110,121 76,137 131,145" />
<polygon fill="#ffffff" fill-opacity="0.501961" points="78,132 65,198 104,122" />
<polygon fill="#e7c9b0" fill-opacity="0.501961" points="102,134 84,163 118,164" />
<polygon fill="#584243" fill-opacity="0.501961" points="207,130 204,-16 82,120" />
<polygon fill="#5a4443" fill-opacity="0.501961" points="171,70 130,152 217,153" />
<polygon fill="#ffffff" fill-opacity="0.501961" points="-7,153 89,156 8,252" />
<polygon fill="#584443" fill-opacity="0.501961" points="-12,153 68,-12 74,153" />
<polygon fill="#ffffff" fill-opacity="0.501961" points="134,184 129,139 102,124" />
<polygon fill="#ffffff" fill-opacity="0.501961" points="204,269 203,154 125,153" />
<polygon fill="#5a4646" fill-opacity="0.501961" points="-16,38 160,153 220,-15" />
<polygon fill="#e3d8d3" fill-opacity="0.501961" points="140,224 84,231 87,216" />
<polygon fill="#594545" fill-opacity="0.501961" points="195,-16 69,146 -16,-2" />
<polygon fill="#ffffff" fill-opacity="0.501961" points="130,146 122,130 105,160" />
<polygon fill="#9c9692" fill-opacity="0.501961" points="205,250 204,173 216,211" />
<polygon fill="#ffffff" fill-opacity="0.501961" points="203,254 95,254 203,156" />
<polygon fill="#ffffff" fill-opacity="0.501961" points="96,159 75,144 84,128" />
<polygon fill="#c18585" fill-opacity="0.501961" points="104,143 93,151 101,135" />
<polygon fill="#594545" fill-opacity="0.501961" points="34,152 116,111 -16,45" />
<polygon fill="#b9b1b0" fill-opacity="0.501961" points="-1,225 -14,175 0,151" />
<polygon fill="#ffffff" fill-opacity="0.501961" points="86,154 1,254 1,155" />
<polygon fill="#5e4942" fill-opacity="0.501961" points="128,128 217,153 132,152" />
<polygon fill="#ffffff" fill-opacity="0.501961" points="137,176 101,123 121,129" />
<polygon fill="#e4d8d3" fill-opacity="0.501961" points="108,246 113,235 90,237" />
<polygon fill="#ffffff" fill-opacity="0.501961" points="76,137 117,126 92,123" />
<polygon fill="#c5bfbf" fill-opacity="0.501961" points="120,254 76,271 22,254" />
<polygon fill="#594545" fill-opacity="0.501961" points="103,119 6,153 -9,-16" />
<polygon fill="#5b4642" fill-opacity="0.501961" points="93,99 -2,152 71,152" />
<polygon fill="#c3bdbd" fill-opacity="0.501961" points="206,255 169,271 118,254" />
<polygon fill="#eae2df" fill-opacity="0.501961" points="109,231 118,218 64,223" />
<polygon fill="#877d78" fill-opacity="0.501961" points="204,151 205,169 216,143" />
<polygon fill="#ffffff" fill-opacity="0.501961" points="123,254 1,253 3,192" />
<polygon fill="#ffffff" fill-opacity="0.501961" points="109,161 76,140 75,151" />
<polygon fill="#584445" fill-opacity="0.501961" points="95,102 141,149 205,142" />
<polygon fill="#ffffff" fill-opacity="0.501961" points="189,154 202,217 -6,220" />
<polygon fill="#faf7ea" fill-opacity="0.501961" points="139,159 71,168 106,184" />
<polygon fill="#cfa9a9" fill-opacity="0.501961" points="92,152 101,156 105,152" />
<polygon fill="#ffffff" fill-opacity="0.501961" points="95,167 130,146 124,133" />
<polygon fill="#f0dda3" fill-opacity="0.501961" points="118,158 101,163 119,163" />
<polygon fill="#b9b2b1" fill-opacity="0.501961" points="-14,254 21,255 -7,271" />
<polygon fill="#5a4645" fill-opacity="0.501961" points="63,148 -16,153 147,70" />
<polygon fill="#594545" fill-opacity="0.501961" points="220,-3 220,164 -4,-6" />
<polygon fill="#e9cc75" fill-opacity="0.501961" points="87,163 98,160 88,160" />
<polygon fill="#ffffff" fill-opacity="0.501961" points="86,127 75,157 95,159" />
<polygon fill="#faf7fa" fill-opacity="0.501961" points="107,159 120,159 96,144" />
<polygon fill="#ffffff" fill-opacity="0.501961" points="202,185 201,254 95,254" />
<polygon fill="#d4c1bc" fill-opacity="0.501961" points="90,242 99,243 96,240" />
<polygon fill="#efe0b4" fill-opacity="0.501961" points="82,170 76,166 73,154" />
<polygon fill="#ffffff" fill-opacity="0.501961" points="101,124 107,146 115,124" />
<polygon fill="#594545" fill-opacity="0.501961" points="220,-4 94,119 165,131" />
<polygon fill="#cc9b96" fill-opacity="0.501961" points="101,133 101,151 105,144" />
<polygon fill="#ede6e3" fill-opacity="0.501961" points="140,224 113,230 103,221" />
<polygon fill="#ffffff" fill-opacity="0.501961" points="202,254 202,155 129,154" />
<polygon fill="#c4bebe" fill-opacity="0.501961" points="-16,255 3,271 -3,196" />
<polygon fill="#5a4646" fill-opacity="0.501961" points="60,150 220,-10 -9,54" />
<polygon fill="#ffffff" fill-opacity="0.501961" points="87,127 80,158 103,123" />
<polygon fill="#f5ebcb" fill-opacity="0.501961" points="123,171 130,150 132,158" />
<polygon fill="#ffffff" fill-opacity="0.501961" points="127,136 111,124 128,162" />
<polygon fill="#604936" fill-opacity="0.501961" points="74,153 48,147 73,146" />
<polygon fill="#e0c3be" fill-opacity="0.501961" points="91,148 91,144 103,145" />
<polygon fill="#ffffff" fill-opacity="0.501961" points="129,163 85,172 110,178" />
<polygon fill="#ffffff" fill-opacity="0.501961" points="94,253 6,162 1,254" />
<polygon fill="#ffffff" fill-opacity="0.501961" points="131,153 118,127 103,135" />
<polygon fill="#f1e2bb" fill-opacity="0.501961" points="101,180 86,175 90,180" />
<polygon fill="#dec4be" fill-opacity="0.501961" points="113,148 108,155 103,155" />
<polygon fill="#584442" fill-opacity="0.501961" points="134,152 151,144 122,119" />
<polygon fill="#594545" fill-opacity="0.501961" points="168,109 0,-16 0,138" />
<polygon fill="#ffffff" fill-opacity="0.501961" points="78,138 100,159 76,159" />
<polygon fill="#69544a" fill-opacity="0.501961" points="151,153 201,153 179,145" />
<polygon fill="#98908c" fill-opacity="0.501961" points="204,253 215,228 218,271" />
<polygon fill="#ffffff" fill-opacity="0.501961" points="181,214 121,223 70,170" />
<polygon fill="#ffffff" fill-opacity="0.501961" points="106,157 124,160 125,137" />
<polygon fill="#e7deda" fill-opacity="0.501961" points="85,224 66,226 69,221" />
<polygon fill="#ffffff" fill-opacity="0.501961" points="95,222 54,209 70,223" />
<polygon fill="#ffffff" fill-opacity="0.501961" points="72,156 97,203 -3,154" />
<polygon fill="#ffffff" fill-opacity="0.501961" points="97,123 95,143 101,135" />
<polygon fill="#e3d7d3" fill-opacity="0.501961" points="120,230 105,229 117,226" />
<polygon fill="#ece4e1" fill-opacity="0.501961" points="91,234 91,243 119,243" />
<polygon fill="#ffffff" fill-opacity="0.501961" points="103,232 57,227 36,248" />
<polygon fill="#ffffff" fill-opacity="0.501961" points="110,226 124,254 194,231" />
<polygon fill="#f5eace" fill-opacity="0.501961" points="107,179 122,172 116,180" />
<polygon fill="#f0ddaf" fill-opacity="0.501961" points="119,159 106,161 120,164" />
<polygon fill="#f0e0a9" fill-opacity="0.501961" points="90,164 102,163 92,160" />
<polygon fill="#ffffff" fill-opacity="0.501961" points="128,140 128,162 115,177" />
<polygon fill="#ffffff" fill-opacity="0.501961" points="124,139 88,127 106,122" />
<polygon fill="#ffffff" fill-opacity="0.501961" points="100,185 158,158 169,251" />
</g>
</svg>