<svg xmlns="http://www.w3.org/2000/svg" version="1.1" width="820" height="1024">
<rect x="0" y="0" width="820" height="1024" fill="#a39891" />
<g transform="scale(4.000000) translate(0.5 0.5)">
<polygon fill="#ffffff" fill-opacity="0.501961" points="220,255 101,46 -16,254" />
<polygon fill="#1b0005" fill-opacity="0.501961" points="212,131 204,-16 -16,5" />
<polygon fill="#180001" fill-opacity="0.501961" points="-16,152 16,-16 66,152" />
<polygon fill="#ffffff" fill-opacity="0.501961" points="126,241 150,71 50,73" />
<polygon fill="#230709" fill-opacity="0.501961" points="147,151 147,59 220,152" />
<polygon fill="#ffffff" fill-opacity="0.501961" points="-16,221 -15,154 220,153" />
<polygon fill="#908232" fill-opacity="0.501961" points="171,220 72,271 44,173" />
<polygon fill="#483133" fill-opacity="0.501961" points="-8,75 2,-16 168,67" />
<polygon fill="#ffffff" fill-opacity="0.501961" points="60,69 150,75 57,177" />
<polygon fill="#f9ffff" fill-opacity="0.501961" points="220,247 123,271 197,145" />
<polygon fill="#ffffff" fill-opacity="0.501961" points="1,259 84,260 -10,137" />
<polygon fill="#606000" fill-opacity="0.501961" points="159,213 149,178 122,249" />
<polygon fill="#0a0000" fill-opacity="0.501961" points="72,245 46,205 68,207" />
<polygon fill="#503a3b" fill-opacity="0.501961" points="54,145 -16,-16 60,41" />
<polygon fill="#fffff8" fill-opacity="0.501961" points="146,73 89,218 131,231" />
<polygon fill="#ffffff" fill-opacity="0.501961" points="62,155 26,271 -16,153" />
<polygon fill="#ad8c2c" fill-opacity="0.501961" points="70,183 99,184 105,254" />
<polygon fill="#ffffff" fill-opacity="0.501961" points="145,72 147,154 58,72" />
<polygon fill="#fdffff" fill-opacity="0.501961" points="138,253 14,271 -13,235" />
<polygon fill="#ffffff" fill-opacity="0.501961" points="59,77 58,163 124,207" />
<polygon fill="#626800" fill-opacity="0.501961" points="143,238 158,208 97,251" />
<polygon fill="#bf8075" fill-opacity="0.501961" points="109,123 83,130 105,93" />
<polygon fill="#584444" fill-opacity="0.501961" points="154,153 220,152 144,31" />
<polygon fill="#5a4646" fill-opacity="0.501961" points="5,-16 180,63 -10,77" />
<polygon fill="#e5e7e4" fill-opacity="0.501961" points="135,162 200,271 205,157" />
<polygon fill="#513a00" fill-opacity="0.501961" points="92,228 47,206 68,233" />
<polygon fill="#3b5ad5" fill-opacity="0.501961" points="91,241 57,245 81,231" />
<polygon fill="#594443" fill-opacity="0.501961" points="-16,16 58,151 56,-16" />
<polygon fill="#69612f" fill-opacity="0.501961" points="54,184 97,186 80,200" />
<polygon fill="#ffffff" fill-opacity="0.501961" points="148,71 145,136 58,71" />
<polygon fill="#f8eab4" fill-opacity="0.501961" points="109,239 89,194 137,220" />
<polygon fill="#fffff8" fill-opacity="0.501961" points="71,117 159,182 47,182" />
<polygon fill="#bebb0c" fill-opacity="0.501961" points="148,222 158,198 138,183" />
<polygon fill="#c3b7a5" fill-opacity="0.501961" points="67,226 64,202 96,196" />
<polygon fill="#dededf" fill-opacity="0.501961" points="220,263 177,155 147,239" />
<polygon fill="#f0d598" fill-opacity="0.501961" points="137,145 95,157 67,146" />
<polygon fill="#584443" fill-opacity="0.501961" points="148,153 220,83 147,25" />
<polygon fill="#564242" fill-opacity="0.501961" points="209,-16 -16,70 196,71" />
<polygon fill="#f8faf9" fill-opacity="0.501961" points="148,242 62,256 113,271" />
<polygon fill="#f8fafd" fill-opacity="0.501961" points="55,204 52,157 -13,152" />
<polygon fill="#c99a3a" fill-opacity="0.501961" points="102,251 70,212 120,246" />
<polygon fill="#ffffff" fill-opacity="0.501961" points="58,77 59,175 93,91" />
<polygon fill="#2e0000" fill-opacity="0.501961" points="63,204 55,218 71,235" />
<polygon fill="#56403f" fill-opacity="0.501961" points="54,153 56,76 -16,148" />
<polygon fill="#c98f86" fill-opacity="0.501961" points="101,139 86,132 116,132" />
<polygon fill="#414900" fill-opacity="0.501961" points="140,210 156,209 142,234" />
<polygon fill="#b5b3b6" fill-opacity="0.501961" points="82,187 52,190 63,205" />
<polygon fill="#ffffff" fill-opacity="0.501961" points="145,118 146,182 128,182" />
<polygon fill="#f6f7f7" fill-opacity="0.501961" points="16,153 -16,233 65,237" />
<polygon fill="#2e4200" fill-opacity="0.501961" points="88,204 93,199 91,210" />
<polygon fill="#e8e7dd" fill-opacity="0.501961" points="127,230 141,183 94,182" />
<polygon fill="#fff9cb" fill-opacity="0.501961" points="93,195 81,203 80,218" />
<polygon fill="#454d00" fill-opacity="0.501961" points="91,193 73,197 83,185" />
<polygon fill="#b26d62" fill-opacity="0.501961" points="105,115 98,117 103,94" />
<polygon fill="#354000" fill-opacity="0.501961" points="121,236 109,241 130,242" />
<polygon fill="#f0f4fe" fill-opacity="0.501961" points="48,265 138,259 81,245" />
<polygon fill="#e4cac4" fill-opacity="0.501961" points="76,117 124,111 119,129" />
<polygon fill="#5a4544" fill-opacity="0.501961" points="220,155 148,144 146,-16" />
<polygon fill="#eceeeb" fill-opacity="0.501961" points="96,262 146,235 139,271" />
<polygon fill="#ffffff" fill-opacity="0.501961" points="142,176 58,155 61,183" />
<polygon fill="#eaebde" fill-opacity="0.501961" points="88,236 99,241 86,243" />
<polygon fill="#6fb100" fill-opacity="0.501961" points="48,208 61,210 58,202" />
<polygon fill="#2d439d" fill-opacity="0.501961" points="84,237 72,249 75,235" />
<polygon fill="#ffffff" fill-opacity="0.501961" points="103,139 87,166 137,125" />
<polygon fill="#e0e3de" fill-opacity="0.501961" points="159,228 155,154 210,153" />
<polygon fill="#584445" fill-opacity="0.501961" points="3,134 -16,-7 131,-11" />
<polygon fill="#bbad04" fill-opacity="0.501961" points="138,218 147,236 134,233" />
<polygon fill="#88850b" fill-opacity="0.501961" points="77,216 63,230 92,232" />
<polygon fill="#ffffff" fill-opacity="0.501961" points="147,171 146,81 104,72" />
<polygon fill="#7e6759" fill-opacity="0.501961" points="58,192 54,181 71,186" />
<polygon fill="#c3ad80" fill-opacity="0.501961" points="150,175 157,198 139,195" />
<polygon fill="#e0b456" fill-opacity="0.501961" points="78,147 72,150 73,155" />
<polygon fill="#e6c97c" fill-opacity="0.501961" points="99,224 114,249 101,193" />
<polygon fill="#f4f4f4" fill-opacity="0.501961" points="1,267 -1,166 64,232" />
<polygon fill="#844200" fill-opacity="0.501961" points="90,220 87,207 85,222" />
<polygon fill="#576400" fill-opacity="0.501961" points="114,247 138,218 131,242" />
<polygon fill="#dcd6b3" fill-opacity="0.501961" points="144,192 126,234 112,231" />
<polygon fill="#ffffff" fill-opacity="0.501961" points="58,73 59,182 92,85" />
<polygon fill="#cbdf3a" fill-opacity="0.501961" points="154,194 148,221 147,206" />
<polygon fill="#adbbea" fill-opacity="0.501961" points="70,246 75,232 66,245" />
<polygon fill="#a29b7f" fill-opacity="0.501961" points="67,216 80,226 69,184" />
<polygon fill="#ffffff" fill-opacity="0.501961" points="92,195 87,196 88,203" />
<polygon fill="#f5f7f7" fill-opacity="0.501961" points="162,200 163,220 145,239" />
<polygon fill="#5b4746" fill-opacity="0.501961" points="86,72 140,69 15,-16" />
<polygon fill="#c97602" fill-opacity="0.501961" points="89,188 71,183 89,183" />
<polygon fill="#594544" fill-opacity="0.501961" points="56,152 -16,152 58,30" />
<polygon fill="#d8cfb9" fill-opacity="0.501961" points="50,183 58,155 58,179" />
<polygon fill="#a09795" fill-opacity="0.501961" points="134,224 138,208 130,209" />
<polygon fill="#e6ba59" fill-opacity="0.501961" points="132,154 127,150 134,149" />
<polygon fill="#c28a81" fill-opacity="0.501961" points="94,115 110,110 102,102" />
<polygon fill="#f3f3f3" fill-opacity="0.501961" points="-3,153 57,155 52,206" />
<polygon fill="#331d00" fill-opacity="0.501961" points="147,229 144,212 139,218" />
<polygon fill="#f7edea" fill-opacity="0.501961" points="98,133 95,117 115,134" />
<polygon fill="#594544" fill-opacity="0.501961" points="220,71 -3,70 153,-16" />
<polygon fill="#353000" fill-opacity="0.501961" points="152,211 155,204 154,214" />
<polygon fill="#ffea90" fill-opacity="0.501961" points="105,243 117,250 114,244" />
<polygon fill="#dcddd9" fill-opacity="0.501961" points="206,271 143,155 201,154" />
<polygon fill="#482507" fill-opacity="0.501961" points="80,231 57,225 53,211" />
<polygon fill="#feffff" fill-opacity="0.501961" points="49,153 147,181 142,153" />
<polygon fill="#ced11f" fill-opacity="0.501961" points="79,218 83,228 73,222" />
</g>
</svg>