<svg xmlns="http://www.w3.org/2000/svg" version="1.1" width="1024" height="680">
<rect x="0" y="0" width="1024" height="680" fill="#d0c6c5" />
<g transform="scale(4.000000) translate(0.5 0.5)">
<polygon fill="#730067" fill-opacity="0.501961" points="271,121 158,116 231,30" />
<polygon fill="#ffffff" fill-opacity="0.501961" points="170,120 170,-16 -16,4" />
<polygon fill="#2c8dab" fill-opacity="0.501961" points="86,118 83,33 -15,114" />
<polygon fill="#8e6b00" fill-opacity="0.501961" points="35,161 83,136 -1,130" />
<polygon fill="#fffab0" fill-opacity="0.501961" points="271,183 57,185 105,67" />
<polygon fill="#8a0a91" fill-opacity="0.501961" points="199,62 172,34 170,128" />
<polygon fill="#ad7200" fill-opacity="0.501961" points="93,142 135,122 140,155" />
<polygon fill="#fff4ff" fill-opacity="0.501961" points="233,68 259,11 72,11" />
<polygon fill="#4d1b42" fill-opacity="0.501961" points="271,38 271,121 204,117" />
<polygon fill="#78caf5" fill-opacity="0.501961" points="75,32 8,33 -16,150" />
<polygon fill="#ffffff" fill-opacity="0.501961" points="23,162 156,185 180,147" />
<polygon fill="#efca49" fill-opacity="0.501961" points="271,127 135,138 222,161" />
<polygon fill="#d161ba" fill-opacity="0.501961" points="271,33 193,114 213,32" />
<polygon fill="#170300" fill-opacity="0.501961" points="52,87 66,74 57,117" />
<polygon fill="#8e9378" fill-opacity="0.501961" points="115,121 137,102 127,46" />
<polygon fill="#ffffff" fill-opacity="0.501961" points="-16,31 128,-15 216,32" />
<polygon fill="#fdffff" fill-opacity="0.501961" points="177,127 145,115 167,176" />
<polygon fill="#971390" fill-opacity="0.501961" points="169,32 184,71 186,33" />
<polygon fill="#a13a18" fill-opacity="0.501961" points="239,155 217,132 250,136" />
<polygon fill="#f3fff4" fill-opacity="0.501961" points="214,97 185,101 181,88" />
<polygon fill="#ffffff" fill-opacity="0.501961" points="34,185 -16,154 24,145" />
<polygon fill="#ffffd6" fill-opacity="0.501961" points="65,165 51,116 12,119" />
<polygon fill="#f7fcf7" fill-opacity="0.501961" points="208,130 268,176 195,171" />
<polygon fill="#f9ffff" fill-opacity="0.501961" points="106,119 86,182 14,185" />
<polygon fill="#856b09" fill-opacity="0.501961" points="49,131 73,147 72,124" />
<polygon fill="#54a1e1" fill-opacity="0.501961" points="81,-16 24,10 59,11" />
<polygon fill="#ffffff" fill-opacity="0.501961" points="8,59 20,-16 -16,49" />
<polygon fill="#d54a00" fill-opacity="0.501961" points="153,144 148,130 141,152" />
<polygon fill="#fefec7" fill-opacity="0.501961" points="102,110 67,30 173,33" />
<polygon fill="#fff500" fill-opacity="0.501961" points="188,128 204,156 172,145" />
<polygon fill="#fffdff" fill-opacity="0.501961" points="210,116 167,131 264,130" />
<polygon fill="#9700a3" fill-opacity="0.501961" points="170,170 192,164 172,159" />
<polygon fill="#554138" fill-opacity="0.501961" points="65,77 89,66 37,73" />
<polygon fill="#cc32a9" fill-opacity="0.501961" points="207,9 174,-16 170,12" />
<polygon fill="#fffff7" fill-opacity="0.501961" points="130,59 174,159 166,36" />
<polygon fill="#76571a" fill-opacity="0.501961" points="30,134 5,122 9,147" />
<polygon fill="#7f3d7d" fill-opacity="0.501961" points="252,114 224,90 161,122" />
<polygon fill="#ffffff" fill-opacity="0.501961" points="250,184 249,129 271,123" />
<polygon fill="#ffffff" fill-opacity="0.501961" points="271,32 215,4 127,32" />
<polygon fill="#695538" fill-opacity="0.501961" points="250,149 249,139 217,156" />
<polygon fill="#c65ec2" fill-opacity="0.501961" points="167,49 234,88 248,71" />
<polygon fill="#ce8a31" fill-opacity="0.501961" points="111,152 140,151 129,112" />
<polygon fill="#ffffff" fill-opacity="0.501961" points="-16,94 27,93 -16,106" />
<polygon fill="#fbffff" fill-opacity="0.501961" points="168,157 144,185 56,146" />
<polygon fill="#d742a8" fill-opacity="0.501961" points="271,9 229,11 262,-16" />
<polygon fill="#92ba00" fill-opacity="0.501961" points="123,138 101,134 103,149" />
<polygon fill="#ffffff" fill-opacity="0.501961" points="31,116 77,120 36,131" />
<polygon fill="#b18912" fill-opacity="0.501961" points="47,161 23,145 56,146" />
<polygon fill="#5fc1d5" fill-opacity="0.501961" points="34,67 -9,57 4,93" />
<polygon fill="#9ebde7" fill-opacity="0.501961" points="84,64 84,30 12,71" />
<polygon fill="#fcf7bb" fill-opacity="0.501961" points="172,105 134,145 138,85" />
<polygon fill="#ffffff" fill-opacity="0.501961" points="186,54 231,64 191,36" />
<polygon fill="#944c98" fill-opacity="0.501961" points="170,114 181,54 206,58" />
<polygon fill="#3c3732" fill-opacity="0.501961" points="72,84 50,92 51,75" />
<polygon fill="#ffffff" fill-opacity="0.501961" points="4,185 -16,134 73,185" />
<polygon fill="#ffffff" fill-opacity="0.501961" points="121,132 80,129 119,121" />
<polygon fill="#8de0fb" fill-opacity="0.501961" points="88,100 62,109 61,89" />
<polygon fill="#cd66a6" fill-opacity="0.501961" points="213,32 230,65 271,33" />
<polygon fill="#b4ad82" fill-opacity="0.501961" points="131,89 104,121 143,120" />
<polygon fill="#fff9bf" fill-opacity="0.501961" points="87,127 86,32 127,50" />
<polygon fill="#42144a" fill-opacity="0.501961" points="255,125 268,113 220,114" />
<polygon fill="#fdeaff" fill-opacity="0.501961" points="162,139 130,120 216,122" />
<polygon fill="#ffffff" fill-opacity="0.501961" points="55,36 76,-16 76,44" />
<polygon fill="#f7f9ff" fill-opacity="0.501961" points="255,146 185,178 268,185" />
<polygon fill="#a5a892" fill-opacity="0.501961" points="121,55 129,83 129,32" />
<polygon fill="#835c01" fill-opacity="0.501961" points="83,133 58,142 72,146" />
<polygon fill="#cfd155" fill-opacity="0.501961" points="218,162 195,159 235,148" />
<polygon fill="#f8fdff" fill-opacity="0.501961" points="193,152 213,175 166,153" />
<polygon fill="#faffff" fill-opacity="0.501961" points="-1,13 41,-1 -13,72" />
<polygon fill="#ffffff" fill-opacity="0.501961" points="252,-16 231,10 218,-15" />
<polygon fill="#e1cb78" fill-opacity="0.501961" points="20,122 47,137 -6,124" />
<polygon fill="#6fbdca" fill-opacity="0.501961" points="64,71 34,116 -16,122" />
<polygon fill="#d47840" fill-opacity="0.501961" points="228,129 229,149 246,132" />
<polygon fill="#db7e00" fill-opacity="0.501961" points="139,152 150,135 153,147" />
<polygon fill="#8b3d7d" fill-opacity="0.501961" points="196,115 168,126 183,98" />
<polygon fill="#ffffff" fill-opacity="0.501961" points="18,49 11,62 29,65" />
<polygon fill="#7c8c95" fill-opacity="0.501961" points="31,70 43,86 75,74" />
<polygon fill="#c559be" fill-opacity="0.501961" points="171,88 191,67 171,29" />
<polygon fill="#5298d9" fill-opacity="0.501961" points="23,11 30,11 16,-10" />
<polygon fill="#fff50e" fill-opacity="0.501961" points="207,135 174,139 181,152" />
<polygon fill="#974aa1" fill-opacity="0.501961" points="184,87 207,92 213,52" />
<polygon fill="#ffffff" fill-opacity="0.501961" points="132,85 133,49 172,102" />
<polygon fill="#fbfca2" fill-opacity="0.501961" points="107,12 120,-16 84,7" />
<polygon fill="#59abeb" fill-opacity="0.501961" points="5,10 11,-16 -16,13" />
<polygon fill="#ff458f" fill-opacity="0.501961" points="209,127 210,139 202,136" />
<polygon fill="#452611" fill-opacity="0.501961" points="12,144 24,143 21,133" />
<polygon fill="#fff5d6" fill-opacity="0.501961" points="58,69 45,67 45,53" />
<polygon fill="#d2ae75" fill-opacity="0.501961" points="152,78 162,80 159,65" />
<polygon fill="#f6ffff" fill-opacity="0.501961" points="126,151 131,148 119,146" />
<polygon fill="#cce3d0" fill-opacity="0.501961" points="194,101 225,94 181,91" />
<polygon fill="#f7ffff" fill-opacity="0.501961" points="17,179 -16,171 -2,119" />
<polygon fill="#f7feff" fill-opacity="0.501961" points="5,185 80,140 193,178" />
<polygon fill="#c964af" fill-opacity="0.501961" points="204,11 208,-6 170,10" />
<polygon fill="#ffffff" fill-opacity="0.501961" points="271,41 214,12 271,12" />
<polygon fill="#ffffff" fill-opacity="0.501961" points="248,121 210,119 260,136" />
<polygon fill="#ffffff" fill-opacity="0.501961" points="213,36 208,5 220,-16" />
<polygon fill="#87b3e2" fill-opacity="0.501961" points="58,32 28,80 23,32" />
<polygon fill="#8c5668" fill-opacity="0.501961" points="271,105 239,82 254,53" />
<polygon fill="#f4edad" fill-opacity="0.501961" points="107,109 171,126 168,102" />
<polygon fill="#332022" fill-opacity="0.501961" points="205,113 203,119 185,117" />
</g>
</svg>