<svg xmlns="http://www.w3.org/2000/svg" version="1.1" width="1024" height="660">
<rect x="0" y="0" width="1024" height="660" fill="#4e4f50" />
<g transform="scale(4.000000) translate(0.5 0.5)">
<polygon fill="#ffffff" fill-opacity="0.501961" points="240,169 242,95 122,94" />
<polygon fill="#ffffff" fill-opacity="0.501961" points="142,151 142,108 209,151" />
<polygon fill="#000000" fill-opacity="0.501961" points="136,119 190,133 234,118" />
<polygon fill="#24221e" fill-opacity="0.501961" points="-16,152 143,180 141,-16" />
<polygon fill="#969ae4" fill-opacity="0.501961" points="189,9 137,33 250,55" />
<polygon fill="#ffffff" fill-opacity="0.501961" points="246,118 141,117 212,93" />
<polygon fill="#060806" fill-opacity="0.501961" points="127,153 214,180 271,151" />
<polygon fill="#ffffff" fill-opacity="0.501961" points="175,127 238,127 243,148" />
<polygon fill="#1c1c1a" fill-opacity="0.501961" points="-4,138 -13,30 76,51" />
<polygon fill="#9cedc7" fill-opacity="0.501961" points="65,45 69,26 9,32" />
<polygon fill="#000000" fill-opacity="0.501961" points="255,114 271,129 209,125" />
<polygon fill="#d4d6d4" fill-opacity="0.501961" points="23,119 62,108 84,119" />
<polygon fill="#1f211f" fill-opacity="0.501961" points="138,92 268,93 195,48" />
<polygon fill="#fffaf4" fill-opacity="0.501961" points="241,119 158,94 240,95" />
<polygon fill="#1b1b19" fill-opacity="0.501961" points="246,133 234,-16 271,16" />
<polygon fill="#18100f" fill-opacity="0.501961" points="83,91 163,127 77,126" />
<polygon fill="#ff5f40" fill-opacity="0.501961" points="73,136 113,126 64,124" />
<polygon fill="#ffffff" fill-opacity="0.501961" points="142,127 142,150 174,128" />
<polygon fill="#222522" fill-opacity="0.501961" points="169,2 5,-16 -10,30" />
<polygon fill="#799383" fill-opacity="0.501961" points="67,100 67,-16 50,46" />
<polygon fill="#020203" fill-opacity="0.501961" points="9,136 129,134 99,159" />
<polygon fill="#7c9792" fill-opacity="0.501961" points="221,32 238,-8 235,90" />
<polygon fill="#fff4ed" fill-opacity="0.501961" points="195,94 141,117 145,94" />
<polygon fill="#3b3d3c" fill-opacity="0.501961" points="137,150 149,3 66,36" />
<polygon fill="#181716" fill-opacity="0.501961" points="226,-14 226,30 146,-16" />
<polygon fill="#54b98f" fill-opacity="0.501961" points="64,131 46,120 19,134" />
<polygon fill="#ffffff" fill-opacity="0.501961" points="241,129 242,151 218,131" />
<polygon fill="#000000" fill-opacity="0.501961" points="170,127 231,127 200,118" />
<polygon fill="#81d6b8" fill-opacity="0.501961" points="15,36 53,32 13,22" />
<polygon fill="#cad4ff" fill-opacity="0.501961" points="149,16 168,19 145,24" />
<polygon fill="#e50000" fill-opacity="0.501961" points="154,109 164,105 138,103" />
<polygon fill="#2c2d29" fill-opacity="0.501961" points="205,146 204,127 211,125" />
<polygon fill="#5b5a5b" fill-opacity="0.501961" points="87,78 185,79 89,43" />
<polygon fill="#ffffff" fill-opacity="0.501961" points="144,144 155,128 164,147" />
<polygon fill="#b1b2b1" fill-opacity="0.501961" points="46,113 25,107 25,117" />
<polygon fill="#22221f" fill-opacity="0.501961" points="168,130 164,147 160,132" />
<polygon fill="#b18a87" fill-opacity="0.501961" points="248,106 207,113 200,99" />
<polygon fill="#232222" fill-opacity="0.501961" points="243,90 271,98 242,180" />
<polygon fill="#232221" fill-opacity="0.501961" points="172,19 200,-16 122,8" />
<polygon fill="#050606" fill-opacity="0.501961" points="158,128 188,119 127,118" />
<polygon fill="#292727" fill-opacity="0.501961" points="227,52 134,35 228,92" />
<polygon fill="#dddeda" fill-opacity="0.501961" points="177,137 228,150 164,151" />
<polygon fill="#000000" fill-opacity="0.501961" points="217,132 216,139 215,133" />
<polygon fill="#111714" fill-opacity="0.501961" points="8,180 45,109 30,180" />
<polygon fill="#f05c42" fill-opacity="0.501961" points="102,124 108,136 82,129" />
<polygon fill="#2c2829" fill-opacity="0.501961" points="54,-16 -16,17 61,31" />
<polygon fill="#3f413f" fill-opacity="0.501961" points="182,104 171,101 172,110" />
<polygon fill="#2d2d2d" fill-opacity="0.501961" points="62,116 15,36 58,44" />
<polygon fill="#070b0b" fill-opacity="0.501961" points="118,149 98,152 116,98" />
<polygon fill="#0e0d0d" fill-opacity="0.501961" points="177,149 171,138 173,130" />
<polygon fill="#b8baed" fill-opacity="0.501961" points="232,32 213,27 231,42" />
<polygon fill="#d0d2d0" fill-opacity="0.501961" points="79,120 78,108 68,113" />
<polygon fill="#6d6e6b" fill-opacity="0.501961" points="199,143 179,144 200,129" />
<polygon fill="#ffffff" fill-opacity="0.501961" points="192,128 188,135 193,147" />
<polygon fill="#7ca594" fill-opacity="0.501961" points="59,151 69,150 65,180" />
<polygon fill="#85b09e" fill-opacity="0.501961" points="229,68 227,92 234,90" />
<polygon fill="#ffffff" fill-opacity="0.501961" points="181,128 183,137 173,147" />
<polygon fill="#ffffff" fill-opacity="0.501961" points="239,143 218,147 234,130" />
<polygon fill="#303030" fill-opacity="0.501961" points="145,180 247,152 66,151" />
<polygon fill="#2a2b2c" fill-opacity="0.501961" points="69,79 141,158 142,79" />
<polygon fill="#ffffff" fill-opacity="0.501961" points="172,149 165,146 171,132" />
<polygon fill="#000400" fill-opacity="0.501961" points="53,135 51,112 44,149" />
<polygon fill="#000202" fill-opacity="0.501961" points="74,114 81,126 80,141" />
<polygon fill="#ffffff" fill-opacity="0.501961" points="226,117 181,118 199,109" />
<polygon fill="#ffffff" fill-opacity="0.501961" points="157,108 145,118 189,118" />
<polygon fill="#2b2d2a" fill-opacity="0.501961" points="188,106 188,97 194,112" />
<polygon fill="#272728" fill-opacity="0.501961" points="23,162 26,87 -15,180" />
<polygon fill="#ffffff" fill-opacity="0.501961" points="144,108 142,95 157,96" />
<polygon fill="#20136d" fill-opacity="0.501961" points="171,23 211,31 195,21" />
<polygon fill="#708362" fill-opacity="0.501961" points="63,24 111,25 121,8" />
<polygon fill="#1b1b1a" fill-opacity="0.501961" points="147,157 152,146 146,146" />
<polygon fill="#1a2a2b" fill-opacity="0.501961" points="218,110 222,114 220,100" />
<polygon fill="#b4ffec" fill-opacity="0.501961" points="60,125 56,127 57,135" />
<polygon fill="#e7e7e5" fill-opacity="0.501961" points="146,151 168,144 193,151" />
<polygon fill="#2d2c2c" fill-opacity="0.501961" points="68,36 145,45 148,12" />
<polygon fill="#ffffff" fill-opacity="0.501961" points="242,96 222,95 221,114" />
<polygon fill="#888ab7" fill-opacity="0.501961" points="148,36 215,48 147,14" />
<polygon fill="#ff0000" fill-opacity="0.501961" points="225,105 238,104 235,108" />
<polygon fill="#101814" fill-opacity="0.501961" points="243,118 243,128 214,118" />
<polygon fill="#000000" fill-opacity="0.501961" points="36,114 30,117 29,110" />
<polygon fill="#000000" fill-opacity="0.501961" points="164,101 163,109 166,111" />
<polygon fill="#ffffff" fill-opacity="0.501961" points="214,113 220,115 217,98" />
<polygon fill="#352d75" fill-opacity="0.501961" points="148,33 171,30 194,42" />
<polygon fill="#030809" fill-opacity="0.501961" points="93,132 103,105 85,108" />
<polygon fill="#1a1819" fill-opacity="0.501961" points="200,82 166,93 236,94" />
<polygon fill="#62bd97" fill-opacity="0.501961" points="26,125 50,128 28,134" />
<polygon fill="#ffffff" fill-opacity="0.501961" points="48,117 45,115 45,127" />
<polygon fill="#ffffff" fill-opacity="0.501961" points="214,131 207,131 215,152" />
<polygon fill="#000b03" fill-opacity="0.501961" points="33,130 39,139 36,112" />
<polygon fill="#ffffff" fill-opacity="0.501961" points="212,96 211,116 203,96" />
<polygon fill="#2d2d28" fill-opacity="0.501961" points="204,25 193,-16 224,29" />
<polygon fill="#292a28" fill-opacity="0.501961" points="216,144 221,143 215,129" />
<polygon fill="#ffffff" fill-opacity="0.501961" points="218,140 243,127 227,147" />
<polygon fill="#333231" fill-opacity="0.501961" points="271,29 235,49 253,160" />
<polygon fill="#ffffff" fill-opacity="0.501961" points="160,151 142,130 161,128" />
<polygon fill="#67857a" fill-opacity="0.501961" points="66,99 54,95 68,60" />
<polygon fill="#0b0d0d" fill-opacity="0.501961" points="71,149 22,131 23,150" />
<polygon fill="#8a8b8b" fill-opacity="0.501961" points="98,107 110,103 88,103" />
<polygon fill="#ffffff" fill-opacity="0.501961" points="205,143 200,142 202,130" />
<polygon fill="#ffffff" fill-opacity="0.501961" points="181,116 178,99 176,115" />
</g>
</svg>