<svg xmlns="http://www.w3.org/2000/svg" version="1.1" width="1024" height="612">
<rect x="0" y="0" width="1024" height="612" fill="#f7f7f7" />
<g transform="scale(4.000000) translate(0.5 0.5)">
<polygon fill="#9b9b9b" fill-opacity="0.501961" points="170,98 46,82 237,56" />
<polygon fill="#b1b1b1" fill-opacity="0.501961" points="48,80 131,96 11,108" />
<polygon fill="#ececec" fill-opacity="0.501961" points="96,95 271,49 208,98" />
<polygon fill="#ffffff" fill-opacity="0.501961" points="271,26 -16,98 5,-16" />
<polygon fill="#ffffff" fill-opacity="0.501961" points="-16,130 227,80 271,168" />
<polygon fill="#959595" fill-opacity="0.501961" points="80,77 152,86 155,66" />
<polygon fill="#b4b4b4" fill-opacity="0.501961" points="242,78 226,63 169,90" />
<polygon fill="#ffffff" fill-opacity="0.501961" points="225,78 167,88 220,62" />
<polygon fill="#e7e7e7" fill-opacity="0.501961" points="88,87 8,105 25,84" />
<polygon fill="#7f7f7f" fill-opacity="0.501961" points="171,66 200,70 210,61" />
<polygon fill="#ffffff" fill-opacity="0.501961" points="9,168 247,112 -9,104" />
<polygon fill="#a6a6a6" fill-opacity="0.501961" points="52,105 58,90 107,98" />
<polygon fill="#ffffff" fill-opacity="0.501961" points="246,-16 259,55 -12,84" />
<polygon fill="#646464" fill-opacity="0.501961" points="152,94 163,87 179,88" />
<polygon fill="#ffffff" fill-opacity="0.501961" points="97,98 130,81 171,86" />
<polygon fill="#272727" fill-opacity="0.501961" points="187,84 194,85 181,88" />
<polygon fill="#6a6a6a" fill-opacity="0.501961" points="206,65 211,74 204,76" />
<polygon fill="#a6a6a6" fill-opacity="0.501961" points="133,86 175,65 82,81" />
<polygon fill="#ffffff" fill-opacity="0.501961" points="256,77 255,168 153,94" />
<polygon fill="#b0b0b0" fill-opacity="0.501961" points="117,70 72,94 162,80" />
<polygon fill="#595959" fill-opacity="0.501961" points="238,78 222,77 229,80" />
<polygon fill="#c0c0c0" fill-opacity="0.501961" points="21,87 15,104 55,82" />
<polygon fill="#ffffff" fill-opacity="0.501961" points="-1,-16 271,3 -5,95" />
<polygon fill="#ebebeb" fill-opacity="0.501961" points="193,85 201,68 154,76" />
<polygon fill="#a4a4a4" fill-opacity="0.501961" points="191,81 173,78 206,74" />
<polygon fill="#868686" fill-opacity="0.501961" points="243,75 234,58 241,64" />
<polygon fill="#f1f1f1" fill-opacity="0.501961" points="89,85 13,104 34,84" />
<polygon fill="#ffffff" fill-opacity="0.501961" points="164,84 192,76 194,85" />
<polygon fill="#a1a1a1" fill-opacity="0.501961" points="69,77 95,80 45,89" />
<polygon fill="#ffffff" fill-opacity="0.501961" points="219,62 226,80 205,62" />
<polygon fill="#959595" fill-opacity="0.501961" points="163,75 186,65 138,70" />
<polygon fill="#ffffff" fill-opacity="0.501961" points="4,-16 258,53 147,68" />
<polygon fill="#ffffff" fill-opacity="0.501961" points="72,105 222,84 219,168" />
<polygon fill="#fafafa" fill-opacity="0.501961" points="90,99 118,83 142,89" />
<polygon fill="#f4f4f4" fill-opacity="0.501961" points="85,92 70,99 60,96" />
<polygon fill="#595959" fill-opacity="0.501961" points="126,96 135,96 133,94" />
<polygon fill="#838383" fill-opacity="0.501961" points="141,94 158,90 148,89" />
<polygon fill="#ffffff" fill-opacity="0.501961" points="111,81 98,87 97,82" />
<polygon fill="#858585" fill-opacity="0.501961" points="129,81 107,85 105,79" />
<polygon fill="#ffffff" fill-opacity="0.501961" points="69,89 90,89 90,82" />
<polygon fill="#ffffff" fill-opacity="0.501961" points="-16,100 249,142 6,168" />
<polygon fill="#6c6c6c" fill-opacity="0.501961" points="23,97 28,104 26,106" />
<polygon fill="#787878" fill-opacity="0.501961" points="81,83 103,80 91,78" />
<polygon fill="#ffffff" fill-opacity="0.501961" points="271,-6 194,-10 263,99" />
<polygon fill="#aaaaaa" fill-opacity="0.501961" points="45,89 59,82 25,86" />
<polygon fill="#ffffff" fill-opacity="0.501961" points="153,75 163,79 168,73" />
<polygon fill="#ffffff" fill-opacity="0.501961" points="153,82 172,86 138,93" />
<polygon fill="#ffffff" fill-opacity="0.501961" points="-16,89 18,-16 99,74" />
<polygon fill="#ffffff" fill-opacity="0.501961" points="201,83 230,77 200,74" />
<polygon fill="#ffffff" fill-opacity="0.501961" points="235,60 223,72 240,69" />
<polygon fill="#ffffff" fill-opacity="0.501961" points="31,88 54,84 43,90" />
<polygon fill="#aeaeae" fill-opacity="0.501961" points="162,78 188,76 172,82" />
<polygon fill="#ffffff" fill-opacity="0.501961" points="22,106 -16,166 75,104" />
<polygon fill="#979797" fill-opacity="0.501961" points="201,78 185,76 206,73" />
<polygon fill="#747474" fill-opacity="0.501961" points="47,104 55,101 58,104" />
<polygon fill="#fbfbfb" fill-opacity="0.501961" points="164,88 154,82 187,77" />
<polygon fill="#c0c0c0" fill-opacity="0.501961" points="113,72 144,73 111,83" />
<polygon fill="#919191" fill-opacity="0.501961" points="184,64 174,71 204,67" />
<polygon fill="#868686" fill-opacity="0.501961" points="113,87 106,90 97,87" />
<polygon fill="#565656" fill-opacity="0.501961" points="98,86 91,81 92,85" />
<polygon fill="#ececec" fill-opacity="0.501961" points="55,101 57,89 45,102" />
<polygon fill="#9d9d9d" fill-opacity="0.501961" points="112,97 125,93 127,97" />
<polygon fill="#e9e9e9" fill-opacity="0.501961" points="138,82 116,84 134,94" />
<polygon fill="#979797" fill-opacity="0.501961" points="19,104 42,104 33,99" />
<polygon fill="#9f9f9f" fill-opacity="0.501961" points="17,106 14,105 19,95" />
<polygon fill="#747474" fill-opacity="0.501961" points="152,77 139,81 156,81" />
<polygon fill="#080808" fill-opacity="0.501961" points="179,86 179,89 184,86" />
<polygon fill="#e3e3e3" fill-opacity="0.501961" points="30,103 23,89 70,101" />
<polygon fill="#8a8a8a" fill-opacity="0.501961" points="61,104 68,99 81,101" />
<polygon fill="#ffffff" fill-opacity="0.501961" points="247,168 124,97 271,81" />
<polygon fill="#ffffff" fill-opacity="0.501961" points="52,87 68,91 32,95" />
<polygon fill="#4e4e4e" fill-opacity="0.501961" points="196,83 206,83 195,86" />
<polygon fill="#7d7d7d" fill-opacity="0.501961" points="235,57 237,60 227,58" />
<polygon fill="#ffffff" fill-opacity="0.501961" points="-16,56 172,-16 271,58" />
<polygon fill="#828282" fill-opacity="0.501961" points="137,96 134,93 143,93" />
<polygon fill="#6d6d6d" fill-opacity="0.501961" points="61,80 54,80 50,84" />
<polygon fill="#f8f8f8" fill-opacity="0.501961" points="85,92 113,88 100,95" />
<polygon fill="#ffffff" fill-opacity="0.501961" points="-16,90 53,82 53,-16" />
<polygon fill="#f4f4f4" fill-opacity="0.501961" points="189,84 200,84 200,75" />
<polygon fill="#d9d9d9" fill-opacity="0.501961" points="84,92 60,102 89,99" />
<polygon fill="#898989" fill-opacity="0.501961" points="68,93 82,93 82,89" />
<polygon fill="#ffffff" fill-opacity="0.501961" points="-1,-16 25,81 -4,136" />
<polygon fill="#767676" fill-opacity="0.501961" points="88,92 84,89 96,89" />
<polygon fill="#c0c0c0" fill-opacity="0.501961" points="120,90 129,86 105,85" />
<polygon fill="#ffffff" fill-opacity="0.501961" points="213,106 107,168 -16,105" />
<polygon fill="#ffffff" fill-opacity="0.501961" points="69,91 76,84 91,88" />
<polygon fill="#ffffff" fill-opacity="0.501961" points="206,68 202,73 189,70" />
<polygon fill="#ffffff" fill-opacity="0.501961" points="108,99 175,168 182,91" />
<polygon fill="#bfbfbf" fill-opacity="0.501961" points="152,78 148,70 123,81" />
<polygon fill="#7f7f7f" fill-opacity="0.501961" points="141,80 133,77 128,82" />
<polygon fill="#929292" fill-opacity="0.501961" points="63,94 54,98 53,93" />
<polygon fill="#969696" fill-opacity="0.501961" points="126,76 108,73 137,69" />
<polygon fill="#1e1e1e" fill-opacity="0.501961" points="223,60 230,58 225,58" />
<polygon fill="#555555" fill-opacity="0.501961" points="88,99 96,99 89,101" />
<polygon fill="#ffffff" fill-opacity="0.501961" points="142,87 115,93 132,94" />
<polygon fill="#b2b2b2" fill-opacity="0.501961" points="233,76 217,74 234,70" />
<polygon fill="#656565" fill-opacity="0.501961" points="194,85 195,78 191,87" />
<polygon fill="#6a6a6a" fill-opacity="0.501961" points="217,82 222,82 222,80" />
<polygon fill="#bdbdbd" fill-opacity="0.501961" points="125,71 148,78 107,82" />
<polygon fill="#ffffff" fill-opacity="0.501961" points="233,60 225,60 238,75" />
</g>
</svg>